<svg xmlns="http://www.w3.org/2000/svg" width="800" height="400" viewBox="0 0 800 400">
<rect x="40" y="40" width="720" height="320" fill="white" stroke="#ddd"/>
<text x="400.0" y="32" text-anchor="middle" font-family="sans-serif" font-size="14" fill="#333">Equity Curves by Quarter (sampled)</text>
<rect x="50" y="50" width="12" height="12" fill="#1f77b4"/><text x="68" y="61" font-family="sans-serif" font-size="12" fill="#333">Q1 2023</text><rect x="190" y="50" width="12" height="12" fill="#ff7f0e"/><text x="208" y="61" font-family="sans-serif" font-size="12" fill="#333">Q2 2023</text><rect x="330" y="50" width="12" height="12" fill="#2ca02c"/><text x="348" y="61" font-family="sans-serif" font-size="12" fill="#333">Q3 2023</text><rect x="470" y="50" width="12" height="12" fill="#d62728"/><text x="488" y="61" font-family="sans-serif" font-size="12" fill="#333">Q4 2023</text><path d="M 40.0,40.0 40.6,41.1 41.1,41.1 41.7,41.8 42.3,42.2 42.8,42.6 43.4,43.2 43.9,43.4 44.5,43.8 45.1,44.4 45.6,44.9 46.2,45.2 46.8,45.5 47.3,45.9 47.9,46.7 48.5,46.9 49.0,47.3 49.6,47.6 50.1,48.2 50.7,48.9 51.3,49.2 51.8,49.7 52.4,50.0 53.0,50.7 53.5,50.8 54.1,51.3 54.6,51.6 55.2,51.9 55.8,52.6 56.3,53.5 56.9,53.8 57.5,54.3 58.0,54.6 58.6,55.1 59.2,55.2 59.7,55.6 60.3,56.1 60.8,56.6 61.4,57.4 62.0,57.7 62.5,58.5 63.1,59.0 63.7,59.4 64.2,59.8 64.8,60.4 65.4,60.7 65.9,60.9 66.5,61.4 67.0,61.6 67.6,62.2 68.2,62.7 68.7,63.1 69.3,63.5 69.9,63.8 70.4,63.9 71.0,64.5 71.5,65.8 72.1,66.1 72.7,66.1 73.2,66.6 73.8,67.0 74.4,67.6 74.9,67.9 75.5,68.3 76.1,69.1 76.6,69.4 77.2,69.9 77.7,70.0 78.3,70.8 78.9,71.0 79.4,71.1 80.0,71.6 80.6,72.3 81.1,72.6 81.7,73.0 82.3,73.6 82.8,73.9 83.4,74.5 83.9,74.7 84.5,75.1 85.1,75.7 85.6,76.1 86.2,76.9 86.8,77.3 87.3,77.5 87.9,78.1 88.5,78.3 89.0,78.6 89.6,79.2 90.1,79.7 90.7,80.2 91.3,81.0 91.8,81.5 92.4,81.7 93.0,82.0 93.5,82.7 94.1,83.0 94.6,83.8 95.2,83.9 95.8,84.2 96.3,84.3 96.9,84.9 97.5,85.1 98.0,85.2 98.6,85.3 99.2,85.6 99.7,86.1 100.3,86.3 100.8,86.4 101.4,86.8 102.0,87.1 102.5,87.1 103.1,87.8 103.7,88.2 104.2,88.6 104.8,88.7 105.4,88.6 105.9,88.7 106.5,89.2 107.0,89.6 107.6,90.1 108.2,90.7 108.7,91.0 109.3,91.8 109.9,92.4 110.4,92.6 111.0,92.9 111.5,93.1 112.1,94.0 112.7,94.7 113.2,94.8 113.8,95.1 114.4,95.6 114.9,95.6 115.5,96.1 116.1,96.3 116.6,96.7 117.2,97.0 117.7,97.5 118.3,98.0 118.9,98.0 119.4,98.4 120.0,98.6 120.6,98.9 121.1,99.4 121.7,99.7 122.3,100.2 122.8,100.7 123.4,101.0 123.9,101.1 124.5,101.3 125.1,102.1 125.6,102.5 126.2,103.0 126.8,103.6 127.3,103.8 127.9,103.6 128.5,103.8 129.0,104.1 129.6,102.6 130.1,101.7 130.7,102.2 131.3,102.6 131.8,102.7 132.4,103.4 133.0,103.7 133.5,104.0 134.1,103.8 134.6,103.7 135.2,103.8 135.8,103.7 136.3,103.6 136.9,104.6 137.5,104.9 138.0,105.4 138.6,105.8 139.2,105.9 139.7,106.3 140.3,106.7 140.8,106.7 141.4,106.6 142.0,107.2 142.5,107.6 143.1,107.6 143.7,107.5 144.2,108.2 144.8,106.7 145.4,107.3 145.9,104.6 146.5,104.9 147.0,105.1 147.6,105.5 148.2,105.9 148.7,107.7 149.3,108.7 149.9,107.7 150.4,108.0 151.0,107.9 151.5,108.3 152.1,109.1 152.7,109.1 153.2,109.1 153.8,109.0 154.4,109.8 154.9,110.7 155.5,111.3 156.1,111.4 156.6,112.0 157.2,112.3 157.7,112.8 158.3,113.2 158.9,113.4 159.4,113.3 160.0,113.3 160.6,113.5 161.1,113.7 161.7,113.8 162.3,114.1 162.8,113.8 163.4,114.3 163.9,114.6 164.5,115.0 165.1,116.9 165.6,116.9 166.2,117.4 166.8,117.7 167.3,117.3 167.9,117.6 168.5,117.8 169.0,118.5 169.6,118.8 170.1,119.1 170.7,120.1 171.3,119.9 171.8,120.3 172.4,120.2 173.0,120.4 173.5,121.0 174.1,120.8 174.6,121.3 175.2,121.4 175.8,122.2 176.3,121.9 176.9,122.1 177.5,123.4 178.0,124.2 178.6,124.4 179.2,124.9 179.7,125.0 180.3,125.4 180.8,126.1 181.4,126.8 182.0,127.0 182.5,126.9 183.1,126.2 183.7,127.3 184.2,126.4 184.8,126.7 185.4,127.4 185.9,127.7 186.5,128.0 187.0,128.3 187.6,128.6 188.2,128.8 188.7,129.1 189.3,129.4 189.9,129.7 190.4,129.7 191.0,130.2 191.5,130.2 192.1,130.3 192.7,130.9 193.2,130.7 193.8,131.0 194.4,131.4 194.9,131.4 195.5,131.9 196.1,132.1 196.6,132.7 197.2,132.9 197.7,133.4 198.3,133.6 198.9,133.9 199.4,134.1 200.0,134.7 200.6,134.4 201.1,134.1 201.7,133.7 202.3,133.8 202.8,134.3 203.4,134.2 203.9,134.5 204.5,134.7 205.1,134.9 205.6,135.3 206.2,137.4 206.8,137.1 207.3,137.9 207.9,137.3 208.5,137.5 209.0,137.7 209.6,137.9 210.1,138.8 210.7,139.8 211.3,140.5 211.8,141.2 212.4,141.3 213.0,141.2 213.5,141.5 214.1,141.8 214.6,142.0 215.2,142.1 215.8,142.2 216.3,142.8 216.9,142.9 217.5,143.0 218.0,143.4 218.6,143.4 219.2,144.0 219.7,144.3 220.3,144.7 220.8,144.8 221.4,145.3 222.0,145.7 222.5,145.6 223.1,145.8 223.7,146.3 224.2,146.4 224.8,146.3 225.4,147.5 225.9,147.4 226.5,147.7 227.0,147.7 227.6,148.3 228.2,148.4 228.7,148.7 229.3,149.0 229.9,150.0 230.4,150.1 231.0,150.2 231.5,150.6 232.1,151.0 232.7,151.3 233.2,151.4 233.8,152.0 234.4,152.3 234.9,153.4 235.5,153.4 236.1,153.4 236.6,153.7 237.2,153.8 237.7,153.9 238.3,154.1 238.9,154.4 239.4,154.7 240.0,155.3 240.6,155.4 241.1,156.2 241.7,155.7 242.3,155.1 242.8,155.1 243.4,155.1 243.9,155.5 244.5,156.2 245.1,156.6 245.6,157.1 246.2,157.2 246.8,157.8 247.3,157.7 247.9,158.3 248.5,158.6 249.0,159.1 249.6,159.1 250.1,159.6 250.7,160.1 251.3,160.1 251.8,160.3 252.4,160.7 253.0,160.8 253.5,161.2 254.1,161.2 254.6,161.8 255.2,162.2 255.8,162.8 256.3,162.9 256.9,163.1 257.5,163.3 258.0,163.6 258.6,164.0 259.2,164.4 259.7,164.6 260.3,164.9 260.8,165.2 261.4,165.3 262.0,165.7 262.5,166.1 263.1,166.4 263.7,166.5 264.2,166.6 264.8,167.0 265.4,167.5 265.9,167.9 266.5,168.2 267.0,168.6 267.6,169.1 268.2,169.8 268.7,170.4 269.3,170.4 269.9,170.9 270.4,171.4 271.0,171.4 271.5,171.7 272.1,172.0 272.7,172.2 273.2,172.2 273.8,172.5 274.4,172.9 274.9,173.0 275.5,173.0 276.1,173.1 276.6,173.4 277.2,174.1 277.7,174.4 278.3,174.8 278.9,176.4 279.4,176.9 280.0,177.5 280.6,177.7 281.1,178.0 281.7,178.3 282.3,179.7 282.8,179.8 283.4,179.8 283.9,180.2 284.5,180.8 285.1,181.2 285.6,181.5 286.2,181.9 286.8,182.5 287.3,182.7 287.9,183.1 288.5,183.0 289.0,183.2 289.6,183.4 290.1,183.4 290.7,183.6 291.3,182.9 291.8,183.2 292.4,183.2 293.0,183.5 293.5,183.8 294.1,184.0 294.6,184.4 295.2,184.6 295.8,184.7 296.3,184.8 296.9,185.2 297.5,185.6 298.0,185.7 298.6,184.6 299.2,184.9 299.7,185.0 300.3,185.0 300.8,185.8 301.4,185.9 302.0,186.4 302.5,186.7 303.1,187.0 303.7,187.4 304.2,187.7 304.8,188.0 305.4,188.2 305.9,187.8 306.5,188.6 307.0,188.9 307.6,189.5 308.2,189.6 308.7,190.2 309.3,190.5 309.9,190.7 310.4,191.3 311.0,192.0 311.5,192.1 312.1,192.3 312.7,193.2 313.2,193.0 313.8,193.5 314.4,193.6 314.9,193.7 315.5,194.0 316.1,194.1 316.6,194.4 317.2,194.9 317.7,195.6 318.3,195.8 318.9,196.2 319.4,196.4 320.0,196.6 320.6,196.9 321.1,197.2 321.7,197.7 322.3,198.2 322.8,198.4 323.4,199.1 323.9,199.8 324.5,200.4 325.1,200.9 325.6,201.1 326.2,201.1 326.8,201.4 327.3,201.8 327.9,202.2 328.5,203.1 329.0,203.3 329.6,204.0 330.1,204.8 330.7,205.0 331.3,205.6 331.8,205.7 332.4,206.0 333.0,206.4 333.5,206.5 334.1,207.6 334.6,207.9 335.2,208.1 335.8,208.4 336.3,208.7 336.9,209.0 337.5,209.3 338.0,209.9 338.6,210.3 339.2,210.4 339.7,210.9 340.3,210.9 340.8,211.4 341.4,211.7 342.0,212.0 342.5,212.1 343.1,212.5 343.7,212.8 344.2,213.1 344.8,213.3 345.4,213.7 345.9,214.3 346.5,214.4 347.0,214.6 347.6,214.6 348.2,214.8 348.7,215.1 349.3,215.4 349.9,215.8 350.4,216.0 351.0,216.7 351.5,217.2 352.1,217.5 352.7,217.9 353.2,218.7 353.8,219.3 354.4,219.5 354.9,219.7 355.5,220.1 356.1,220.4 356.6,220.6 357.2,221.2 357.7,221.4 358.3,221.7 358.9,221.4 359.4,221.5 360.0,221.9 360.6,222.4 361.1,222.7 361.7,223.1 362.3,223.5 362.8,223.8 363.4,225.0 363.9,224.9 364.5,225.2 365.1,225.8 365.6,225.7 366.2,226.1 366.8,226.5 367.3,226.9 367.9,227.2 368.5,227.5 369.0,227.9 369.6,228.2 370.1,229.2 370.7,229.3 371.3,229.3 371.8,229.4 372.4,229.6 373.0,229.8 373.5,230.0 374.1,230.1 374.6,230.4 375.2,230.8 375.8,231.5 376.3,231.9 376.9,232.0 377.5,232.5 378.0,232.8 378.6,233.1 379.2,233.3 379.7,233.5 380.3,233.7 380.8,234.1 381.4,234.3 382.0,234.7 382.5,235.1 383.1,235.4 383.7,235.6 384.2,235.8 384.8,236.1 385.4,236.8 385.9,237.2 386.5,237.0 387.0,237.4 387.6,237.6 388.2,238.4 388.7,238.7 389.3,239.3 389.9,239.4 390.4,239.5 391.0,239.4 391.5,239.6 392.1,240.2 392.7,240.2 393.2,240.2 393.8,240.8 394.4,240.9 394.9,241.2 395.5,241.3 396.1,241.7 396.6,241.8 397.2,241.6 397.7,242.2 398.3,242.4 398.9,242.6 399.4,242.9 400.0,243.2 400.6,243.3 401.1,243.6 401.7,244.3 402.3,244.3 402.8,244.4 403.4,244.3 403.9,244.5 404.5,244.5 405.1,244.7 405.6,245.1 406.2,245.5 406.8,245.5 407.3,245.7 407.9,245.8 408.5,246.1 409.0,246.2 409.6,245.7 410.1,246.0 410.7,246.2 411.3,246.4 411.8,246.1 412.4,244.9 413.0,245.2 413.5,244.2 414.1,244.3 414.6,244.3 415.2,244.5 415.8,244.6 416.3,245.0 416.9,245.4 417.5,245.7 418.0,246.0 418.6,245.9 419.2,246.7 419.7,246.5 420.3,246.7 420.8,246.9 421.4,247.8 422.0,247.8 422.5,248.5 423.1,249.0 423.7,249.4 424.2,249.5 424.8,249.8 425.4,249.8 425.9,250.1 426.5,250.7 427.0,251.0 427.6,251.3 428.2,251.1 428.7,251.7 429.3,253.1 429.9,253.1 430.4,253.9 431.0,253.9 431.5,253.9 432.1,254.2 432.7,254.6 433.2,255.0 433.8,255.2 434.4,255.5 434.9,255.7 435.5,255.7 436.1,255.8 436.6,256.6 437.2,256.7 437.7,256.8 438.3,256.9 438.9,257.2 439.4,257.4 440.0,258.2 440.6,258.3 441.1,258.5 441.7,258.7 442.3,259.0 442.8,258.9 443.4,258.9 443.9,258.8 444.5,259.2 445.1,259.2 445.6,260.0 446.2,260.8 446.8,261.0 447.3,260.9 447.9,261.1 448.5,261.4 449.0,261.5 449.6,261.4 450.1,261.6 450.7,261.7 451.3,262.2 451.8,262.7 452.4,262.9 453.0,263.2 453.5,263.6 454.1,263.3 454.6,263.5 455.2,263.6 455.8,263.9 456.3,264.0 456.9,264.7 457.5,264.8 458.0,265.1 458.6,265.5 459.2,266.0 459.7,266.0 460.3,265.9 460.8,266.1 461.4,266.2 462.0,266.4 462.5,266.6 463.1,267.7 463.7,268.1 464.2,268.4 464.8,269.0 465.4,269.1 465.9,269.3 466.5,269.5 467.0,269.6 467.6,270.9 468.2,270.8 468.7,271.0 469.3,271.1 469.9,271.0 470.4,271.3 471.0,271.2 471.5,271.5 472.1,272.1 472.7,272.3 473.2,272.3 473.8,272.7 474.4,273.3 474.9,273.5 475.5,274.2 476.1,274.7 476.6,274.7 477.2,274.9 477.7,275.1 478.3,275.2 478.9,275.4 479.4,275.6 480.0,276.0 480.6,276.1 481.1,276.3 481.7,276.8 482.3,276.9 482.8,277.4 483.4,277.9 483.9,279.8 484.5,280.2 485.1,280.2 485.6,280.6 486.2,280.8 486.8,280.9 487.3,281.3 487.9,281.3 488.5,281.7 489.0,281.7 489.6,282.2 490.1,282.6 490.7,282.8 491.3,283.0 491.8,283.5 492.4,283.5 493.0,283.8 493.5,283.9 494.1,284.2 494.6,284.2 495.2,284.3 495.8,284.4 496.3,284.7 496.9,285.0 497.5,285.0 498.0,285.1 498.6,285.2 499.2,285.7 499.7,286.3 500.3,286.9 500.8,286.7 501.4,286.5 502.0,287.0 502.5,287.1 503.1,287.3 503.7,287.4 504.2,287.8 504.8,288.1 505.4,288.4 505.9,288.5 506.5,288.7 507.0,288.8 507.6,289.0 508.2,289.2 508.7,289.4 509.3,289.5 509.9,289.7 510.4,289.5 511.0,289.7 511.5,289.8 512.1,290.0 512.7,290.2 513.2,290.6 513.8,290.8 514.4,290.9 514.9,290.9 515.5,291.1 516.1,291.1 516.6,291.5 517.2,291.9 517.7,292.2 518.3,292.2 518.9,292.5 519.4,292.6 520.0,292.4 520.6,292.4 521.1,292.5 521.7,292.7 522.3,292.8 522.8,293.0 523.4,293.2 523.9,293.3 524.5,293.3 525.1,293.5 525.6,294.4 526.2,294.5 526.8,294.6 527.3,294.7 527.9,295.1 528.5,295.2 529.0,295.4 529.6,295.7 530.1,296.0 530.7,296.2 531.3,296.5 531.8,296.9 532.4,297.1 533.0,297.7 533.5,297.8 534.1,297.8 534.6,298.1 535.2,298.5 535.8,299.5 536.3,299.6 536.9,299.9 537.5,300.1 538.0,300.3 538.6,300.5 539.2,300.8 539.7,301.0 540.3,301.2 540.8,301.3 541.4,301.6 542.0,301.6 542.5,302.0 543.1,302.1 543.7,302.3 544.2,302.6 544.8,302.7 545.4,303.1 545.9,303.3 546.5,303.6 547.0,303.8 547.6,304.1 548.2,304.2 548.7,304.5 549.3,304.9 549.9,305.2 550.4,305.3 551.0,305.6 551.5,305.6 552.1,306.2 552.7,306.2 553.2,306.4 553.8,306.5 554.4,306.6 554.9,306.7 555.5,307.0 556.1,306.9 556.6,307.0 557.2,307.1 557.7,307.3 558.3,307.5 558.9,307.4 559.4,307.6 560.0,307.9 560.6,308.0 561.1,308.3 561.7,308.6 562.3,308.7 562.8,309.0 563.4,309.2 563.9,309.4 564.5,309.6 565.1,309.6 565.6,309.8 566.2,310.3 566.8,310.5 567.3,310.5 567.9,310.7 568.5,311.0 569.0,311.3 569.6,311.4 570.1,311.6 570.7,311.7 571.3,311.7 571.8,311.8 572.4,312.2 573.0,312.3 573.5,312.5 574.1,312.8 574.6,313.3 575.2,313.3 575.8,313.3 576.3,313.6 576.9,313.9 577.5,314.1 578.0,314.2 578.6,314.3 579.2,314.6 579.7,315.1 580.3,315.4 580.8,315.1 581.4,315.4 582.0,315.9 582.5,316.0 583.1,316.3 583.7,317.0 584.2,317.4 584.8,317.5 585.4,317.6 585.9,317.7 586.5,318.3 587.0,318.5 587.6,318.6 588.2,318.7 588.7,318.8 589.3,319.4 589.9,319.9 590.4,320.1 591.0,320.6 591.5,320.8 592.1,321.1 592.7,321.2 593.2,321.3 593.8,321.7 594.4,321.9 594.9,322.0 595.5,322.8 596.1,322.9 596.6,322.2 597.2,322.1 597.7,321.8 598.3,321.9 598.9,322.1 599.4,322.1 600.0,322.2 600.6,321.9 601.1,322.2 601.7,322.3 602.3,322.7 602.8,323.6 603.4,323.6 603.9,323.7 604.5,323.9 605.1,324.0 605.6,324.2 606.2,324.2 606.8,324.4 607.3,324.2 607.9,324.4 608.5,324.4 609.0,324.7 609.6,324.9 610.1,325.2 610.7,325.3 611.3,325.4 611.8,325.6 612.4,325.9 613.0,326.0 613.5,326.3 614.1,325.7 614.6,325.9 615.2,325.9 615.8,324.8 616.3,324.5 616.9,324.6 617.5,324.8 618.0,324.9 618.6,325.2 619.2,325.8 619.7,325.9 620.3,326.0 620.8,325.9 621.4,324.9 622.0,325.1 622.5,324.9 623.1,325.0 623.7,325.1 624.2,325.6 624.8,325.5 625.4,325.4 625.9,325.5 626.5,325.0 627.0,325.0 627.6,325.1 628.2,324.8 628.7,322.7 629.3,323.1 629.9,323.4 630.4,323.6 631.0,323.9 631.5,324.8 632.1,324.4 632.7,324.7 633.2,325.0 633.8,325.3 634.4,325.6 634.9,325.9 635.5,326.3 636.1,326.6 636.6,326.4 637.2,326.9 637.7,327.1 638.3,327.5 638.9,327.5 639.4,327.6 640.0,328.1 640.6,328.2 641.1,328.4 641.7,328.7 642.3,329.0 642.8,328.9 643.4,328.9 643.9,329.1 644.5,329.2 645.1,329.4 645.6,329.5 646.2,329.7 646.8,330.0 647.3,329.9 647.9,330.2 648.5,330.2 649.0,330.4 649.6,330.5 650.1,330.5 650.7,330.7 651.3,331.0 651.8,331.2 652.4,330.7 653.0,330.4 653.5,330.6 654.1,330.5 654.6,330.5 655.2,330.8 655.8,330.7 656.3,329.9 656.9,330.4 657.5,330.4 658.0,330.6 658.6,330.5 659.2,330.7 659.7,331.2 660.3,331.2 660.8,331.2 661.4,331.4 662.0,332.3 662.5,332.3 663.1,332.3 663.7,332.5 664.2,332.8 664.8,333.2 665.4,333.1 665.9,333.1 666.5,333.2 667.0,333.5 667.6,333.7 668.2,333.8 668.7,334.0 669.3,334.2 669.9,334.4 670.4,333.5 671.0,333.4 671.5,333.3 672.1,333.3 672.7,333.6 673.2,333.8 673.8,333.9 674.4,333.9 674.9,334.0 675.5,334.1 676.1,333.7 676.6,333.9 677.2,333.9 677.7,334.0 678.3,334.4 678.9,334.9 679.4,334.8 680.0,334.8 680.6,335.0 681.1,335.5 681.7,335.8 682.3,336.0 682.8,336.1 683.4,336.5 683.9,337.0 684.5,336.9 685.1,337.2 685.6,337.6 686.2,337.8 686.8,337.5 687.3,338.0 687.9,338.1 688.5,338.4 689.0,338.6 689.6,338.8 690.1,338.9 690.7,338.9 691.3,339.0 691.8,339.3 692.4,339.4 693.0,339.7 693.5,339.8 694.1,340.0 694.6,339.7 695.2,339.9 695.8,340.9 696.3,340.9 696.9,341.1 697.5,341.2 698.0,341.4 698.6,341.4 699.2,341.8 699.7,341.9 700.3,342.1 700.8,342.5 701.4,342.8 702.0,343.2 702.5,342.9 703.1,343.2 703.7,343.8 704.2,343.8 704.8,344.2 705.4,344.4 705.9,344.5 706.5,344.8 707.0,345.0 707.6,345.1 708.2,345.2 708.7,345.2 709.3,345.4 709.9,345.9 710.4,346.4 711.0,346.8 711.5,346.8 712.1,347.1 712.7,347.2 713.2,347.4 713.8,347.5 714.4,347.7 714.9,347.9 715.5,348.0 716.1,348.3 716.6,348.4 717.2,348.8 717.7,348.8 718.3,348.9 718.9,349.3 719.4,349.7 720.0,349.7 720.6,349.6 721.1,349.8 721.7,350.0 722.3,350.4 722.8,350.6 723.4,350.8 723.9,351.0 724.5,351.2 725.1,351.4 725.6,351.1 726.2,351.3 726.8,351.4 727.3,351.5 727.9,351.5 728.5,351.5 729.0,351.6 729.6,351.9 730.1,352.1 730.7,352.4 731.3,352.7 731.8,352.6 732.4,353.0 733.0,353.0 733.5,353.3 734.1,354.0 734.6,353.8 735.2,354.1 735.8,354.3 736.3,354.4 736.9,354.5 737.5,354.8 738.0,354.8 738.6,355.1 739.2,355.1 739.7,355.5 740.3,355.7 740.8,355.8 741.4,355.8 742.0,355.8 742.5,356.1 743.1,356.4 743.7,356.0 744.2,356.1 744.8,356.2 745.4,356.3 745.9,356.2 746.5,356.3 747.0,356.4 747.6,356.4 748.2,356.5 748.7,356.8 749.3,357.0 749.9,356.9 750.4,357.0 751.0,357.2 751.5,357.2 752.1,357.3 752.7,357.3 753.2,357.5 753.8,357.5 754.4,358.2 754.9,358.1 755.5,358.2 756.1,358.3 756.6,358.5 757.2,358.6 757.7,358.7 758.3,358.9 758.9,359.3 759.4,359.9 760.0,360.0" fill="none" stroke="#1f77b4" stroke-width="2" /><path d="M 40.0,40.0 40.6,40.7 41.1,41.1 41.7,41.4 42.2,41.9 42.8,42.0 43.3,42.4 43.9,42.8 44.4,43.4 45.0,43.7 45.6,44.3 46.1,44.6 46.7,45.1 47.2,45.5 47.8,46.1 48.3,46.5 48.9,46.9 49.5,47.4 50.0,47.7 50.6,48.1 51.1,48.5 51.7,49.0 52.2,49.7 52.8,50.3 53.3,50.5 53.9,50.9 54.5,50.9 55.0,51.5 55.6,52.0 56.1,52.7 56.7,53.3 57.2,53.5 57.8,54.1 58.3,54.1 58.9,55.0 59.5,53.8 60.0,53.6 60.6,54.7 61.1,55.1 61.7,56.0 62.2,56.5 62.8,56.2 63.4,58.2 63.9,57.7 64.5,58.1 65.0,58.5 65.6,58.7 66.1,59.4 66.7,59.2 67.2,59.8 67.8,59.8 68.4,59.8 68.9,60.5 69.5,61.0 70.0,61.2 70.6,61.2 71.1,61.5 71.7,61.7 72.2,62.0 72.8,62.2 73.4,62.6 73.9,63.1 74.5,63.3 75.0,63.9 75.6,64.2 76.1,64.7 76.7,65.5 77.3,66.1 77.8,66.2 78.4,66.5 78.9,67.3 79.5,67.8 80.0,68.2 80.6,68.2 81.1,68.5 81.7,68.8 82.3,69.6 82.8,69.8 83.4,70.7 83.9,71.1 84.5,71.4 85.0,71.7 85.6,71.7 86.1,72.3 86.7,72.5 87.3,72.7 87.8,73.1 88.4,73.6 88.9,73.7 89.5,74.6 90.0,74.6 90.6,74.8 91.2,75.2 91.7,75.2 92.3,76.1 92.8,76.4 93.4,77.0 93.9,77.1 94.5,77.4 95.0,77.5 95.6,78.0 96.2,78.0 96.7,78.6 97.3,78.6 97.8,78.8 98.4,79.1 98.9,79.6 99.5,80.1 100.0,80.6 100.6,81.5 101.2,81.8 101.7,82.1 102.3,82.4 102.8,82.7 103.4,83.3 103.9,83.7 104.5,83.7 105.1,84.1 105.6,84.3 106.2,84.4 106.7,85.2 107.3,85.3 107.8,85.9 108.4,86.3 108.9,86.7 109.5,86.7 110.1,86.9 110.6,87.3 111.2,87.9 111.7,88.2 112.3,88.5 112.8,88.6 113.4,88.9 113.9,88.9 114.5,88.9 115.1,88.9 115.6,89.4 116.2,89.7 116.7,90.1 117.3,90.5 117.8,90.3 118.4,90.8 118.9,90.8 119.5,91.2 120.1,90.9 120.6,90.7 121.2,91.2 121.7,92.8 122.3,93.0 122.8,93.2 123.4,93.4 124.0,93.9 124.5,94.4 125.1,94.7 125.6,95.4 126.2,95.7 126.7,96.0 127.3,97.2 127.8,97.2 128.4,97.3 129.0,97.5 129.5,98.7 130.1,99.0 130.6,99.4 131.2,100.0 131.7,100.3 132.3,100.5 132.8,100.7 133.4,101.3 134.0,102.1 134.5,102.4 135.1,103.1 135.6,103.3 136.2,103.6 136.7,103.7 137.3,104.0 137.9,103.9 138.4,104.2 139.0,104.8 139.5,104.9 140.1,105.4 140.6,105.8 141.2,106.6 141.7,107.0 142.3,107.5 142.9,107.6 143.4,108.4 144.0,108.3 144.5,108.5 145.1,107.9 145.6,108.4 146.2,108.6 146.7,108.6 147.3,109.2 147.9,109.7 148.4,110.2 149.0,110.8 149.5,111.4 150.1,112.7 150.6,112.8 151.2,113.2 151.8,113.0 152.3,113.4 152.9,113.8 153.4,114.5 154.0,114.7 154.5,114.9 155.1,115.1 155.6,115.4 156.2,115.8 156.8,116.2 157.3,116.7 157.9,116.8 158.4,117.4 159.0,117.6 159.5,118.0 160.1,118.3 160.6,118.9 161.2,119.6 161.8,119.8 162.3,119.8 162.9,120.1 163.4,120.1 164.0,120.3 164.5,121.1 165.1,121.3 165.7,121.6 166.2,122.0 166.8,122.2 167.3,122.2 167.9,122.5 168.4,122.5 169.0,122.8 169.5,123.1 170.1,123.7 170.7,124.1 171.2,124.7 171.8,124.9 172.3,125.0 172.9,125.2 173.4,125.6 174.0,125.7 174.5,125.7 175.1,125.6 175.7,126.1 176.2,126.5 176.8,126.8 177.3,126.8 177.9,126.9 178.4,126.8 179.0,127.1 179.6,127.7 180.1,127.7 180.7,127.8 181.2,128.3 181.8,128.4 182.3,128.7 182.9,129.2 183.4,129.3 184.0,129.2 184.6,129.4 185.1,129.9 185.7,130.2 186.2,130.4 186.8,130.6 187.3,130.8 187.9,130.8 188.4,131.3 189.0,131.7 189.6,131.8 190.1,132.7 190.7,133.0 191.2,133.3 191.8,133.7 192.3,134.7 192.9,134.7 193.5,135.4 194.0,135.7 194.6,135.8 195.1,136.4 195.7,136.4 196.2,136.8 196.8,137.1 197.3,137.4 197.9,138.7 198.5,138.4 199.0,139.3 199.6,139.5 200.1,139.3 200.7,139.5 201.2,140.0 201.8,140.4 202.3,140.7 202.9,140.7 203.5,140.7 204.0,141.0 204.6,141.4 205.1,141.1 205.7,141.6 206.2,141.9 206.8,142.7 207.4,143.2 207.9,143.5 208.5,143.8 209.0,143.9 209.6,144.6 210.1,145.0 210.7,145.2 211.2,145.6 211.8,146.1 212.4,146.7 212.9,146.8 213.5,147.2 214.0,147.5 214.6,147.9 215.1,148.3 215.7,148.8 216.2,148.8 216.8,149.9 217.4,150.4 217.9,150.6 218.5,150.7 219.0,151.2 219.6,151.4 220.1,151.9 220.7,152.4 221.3,152.8 221.8,153.7 222.4,153.7 222.9,154.5 223.5,155.0 224.0,155.4 224.6,155.6 225.1,156.0 225.7,156.3 226.3,156.6 226.8,156.7 227.4,157.3 227.9,158.1 228.5,158.3 229.0,158.8 229.6,159.5 230.1,159.7 230.7,160.2 231.3,160.8 231.8,161.1 232.4,161.3 232.9,161.3 233.5,161.8 234.0,162.1 234.6,162.5 235.2,162.8 235.7,163.4 236.3,164.2 236.8,164.6 237.4,165.1 237.9,165.3 238.5,165.6 239.0,166.0 239.6,165.9 240.2,165.2 240.7,165.3 241.3,165.6 241.8,165.7 242.4,165.9 242.9,166.2 243.5,166.3 244.0,166.1 244.6,165.6 245.2,166.1 245.7,166.0 246.3,166.1 246.8,166.6 247.4,168.5 247.9,167.8 248.5,168.3 249.1,168.3 249.6,169.2 250.2,169.8 250.7,170.3 251.3,170.5 251.8,170.8 252.4,171.0 252.9,171.6 253.5,171.6 254.1,171.1 254.6,171.3 255.2,170.7 255.7,171.5 256.3,172.2 256.8,172.3 257.4,172.2 257.9,172.3 258.5,172.1 259.1,172.8 259.6,173.3 260.2,173.4 260.7,173.6 261.3,173.7 261.8,174.3 262.4,174.4 262.9,174.6 263.5,174.9 264.1,175.7 264.6,176.0 265.2,176.6 265.7,176.5 266.3,176.7 266.8,176.9 267.4,177.3 268.0,177.7 268.5,178.1 269.1,178.2 269.6,178.6 270.2,179.0 270.7,179.2 271.3,179.5 271.8,179.8 272.4,180.4 273.0,180.7 273.5,181.1 274.1,181.6 274.6,181.9 275.2,182.3 275.7,182.4 276.3,182.8 276.8,183.1 277.4,183.3 278.0,183.6 278.5,183.9 279.1,185.0 279.6,185.0 280.2,185.2 280.7,185.2 281.3,187.0 281.9,187.3 282.4,187.6 283.0,187.7 283.5,187.6 284.1,187.8 284.6,187.9 285.2,188.2 285.7,188.8 286.3,189.2 286.9,189.5 287.4,189.7 288.0,190.2 288.5,189.9 289.1,190.5 289.6,190.8 290.2,190.9 290.7,191.2 291.3,191.7 291.9,191.8 292.4,192.2 293.0,192.2 293.5,191.7 294.1,192.2 294.6,192.4 295.2,192.0 295.8,192.3 296.3,192.6 296.9,193.0 297.4,193.6 298.0,193.6 298.5,194.2 299.1,194.4 299.6,194.5 300.2,194.9 300.8,195.5 301.3,196.6 301.9,197.1 302.4,197.0 303.0,197.2 303.5,197.5 304.1,197.1 304.6,197.4 305.2,197.6 305.8,197.7 306.3,198.1 306.9,198.2 307.4,198.5 308.0,198.8 308.5,198.8 309.1,199.5 309.7,200.3 310.2,200.2 310.8,200.6 311.3,200.6 311.9,201.0 312.4,201.4 313.0,201.5 313.5,201.1 314.1,201.5 314.7,201.7 315.2,202.4 315.8,202.7 316.3,202.9 316.9,203.5 317.4,203.7 318.0,203.3 318.5,203.8 319.1,204.0 319.7,204.1 320.2,204.4 320.8,204.7 321.3,205.2 321.9,205.5 322.4,206.0 323.0,206.5 323.6,207.1 324.1,207.4 324.7,207.8 325.2,208.8 325.8,209.6 326.3,209.7 326.9,209.4 327.4,209.6 328.0,210.2 328.6,210.4 329.1,210.3 329.7,210.5 330.2,210.8 330.8,210.5 331.3,210.5 331.9,210.8 332.4,211.2 333.0,211.4 333.6,211.3 334.1,211.7 334.7,211.9 335.2,212.4 335.8,212.6 336.3,212.9 336.9,213.5 337.5,214.1 338.0,214.3 338.6,214.6 339.1,215.0 339.7,215.7 340.2,215.7 340.8,215.9 341.3,215.8 341.9,216.0 342.5,216.2 343.0,217.0 343.6,217.1 344.1,217.4 344.7,217.6 345.2,217.9 345.8,218.4 346.3,218.6 346.9,219.4 347.5,219.5 348.0,219.9 348.6,220.3 349.1,220.5 349.7,221.2 350.2,221.5 350.8,221.6 351.4,221.8 351.9,222.0 352.5,222.1 353.0,222.1 353.6,222.3 354.1,222.6 354.7,222.8 355.2,223.3 355.8,223.7 356.4,224.2 356.9,224.3 357.5,224.6 358.0,224.7 358.6,227.0 359.1,226.7 359.7,226.5 360.2,227.1 360.8,227.3 361.4,227.5 361.9,228.0 362.5,228.1 363.0,228.2 363.6,228.7 364.1,228.9 364.7,229.2 365.3,229.3 365.8,230.4 366.4,230.6 366.9,231.3 367.5,231.5 368.0,231.6 368.6,231.8 369.1,231.9 369.7,232.5 370.3,232.4 370.8,233.8 371.4,233.7 371.9,233.9 372.5,234.1 373.0,234.6 373.6,235.0 374.1,235.5 374.7,236.0 375.3,236.6 375.8,236.1 376.4,236.3 376.9,236.6 377.5,236.9 378.0,237.3 378.6,237.4 379.2,237.8 379.7,237.9 380.3,238.1 380.8,238.3 381.4,238.5 381.9,238.8 382.5,238.9 383.0,239.3 383.6,239.2 384.2,239.5 384.7,239.9 385.3,240.1 385.8,240.4 386.4,240.8 386.9,241.1 387.5,241.5 388.0,241.7 388.6,241.8 389.2,242.0 389.7,242.3 390.3,242.6 390.8,243.0 391.4,243.3 391.9,243.5 392.5,243.8 393.1,244.4 393.6,244.6 394.2,244.7 394.7,244.6 395.3,244.8 395.8,245.3 396.4,245.6 396.9,245.9 397.5,246.3 398.1,246.4 398.6,246.3 399.2,246.3 399.7,246.5 400.3,247.1 400.8,247.3 401.4,247.9 401.9,247.9 402.5,248.1 403.1,248.4 403.6,248.7 404.2,249.1 404.7,249.6 405.3,249.9 405.8,249.8 406.4,249.7 406.9,250.0 407.5,250.4 408.1,250.5 408.6,250.8 409.2,251.1 409.7,251.5 410.3,251.7 410.8,251.7 411.4,252.6 412.0,253.1 412.5,253.3 413.1,253.8 413.6,254.0 414.2,254.3 414.7,254.0 415.3,253.7 415.8,254.1 416.4,254.2 417.0,254.6 417.5,254.8 418.1,255.0 418.6,255.3 419.2,255.5 419.7,255.7 420.3,255.9 420.8,256.3 421.4,256.8 422.0,257.3 422.5,257.7 423.1,258.8 423.6,258.7 424.2,258.7 424.7,259.3 425.3,259.6 425.9,259.8 426.4,260.2 427.0,260.4 427.5,260.5 428.1,260.9 428.6,261.1 429.2,261.4 429.7,261.6 430.3,261.9 430.9,262.0 431.4,262.3 432.0,262.4 432.5,262.8 433.1,263.3 433.6,263.4 434.2,263.7 434.7,263.9 435.3,264.1 435.9,264.1 436.4,264.4 437.0,264.5 437.5,264.9 438.1,265.3 438.6,265.7 439.2,266.1 439.8,266.4 440.3,266.5 440.9,266.8 441.4,267.0 442.0,267.5 442.5,267.8 443.1,268.1 443.6,268.2 444.2,268.3 444.8,268.4 445.3,268.6 445.9,268.8 446.4,269.3 447.0,269.7 447.5,269.8 448.1,270.2 448.6,270.4 449.2,270.5 449.8,270.8 450.3,271.0 450.9,270.8 451.4,270.9 452.0,271.0 452.5,271.1 453.1,271.4 453.7,271.8 454.2,272.2 454.8,272.4 455.3,272.5 455.9,272.7 456.4,273.2 457.0,273.2 457.5,273.2 458.1,273.4 458.7,273.5 459.2,273.8 459.8,273.8 460.3,274.2 460.9,274.4 461.4,274.8 462.0,274.9 462.5,275.1 463.1,275.4 463.7,275.8 464.2,275.8 464.8,275.9 465.3,275.9 465.9,276.4 466.4,276.5 467.0,276.8 467.6,277.0 468.1,277.3 468.7,277.6 469.2,277.8 469.8,278.7 470.3,279.0 470.9,279.1 471.4,279.2 472.0,279.5 472.6,279.6 473.1,279.8 473.7,279.8 474.2,279.8 474.8,280.0 475.3,280.1 475.9,280.4 476.4,280.7 477.0,280.7 477.6,281.0 478.1,281.4 478.7,281.4 479.2,281.0 479.8,281.1 480.3,281.5 480.9,281.6 481.5,281.6 482.0,281.9 482.6,282.1 483.1,282.1 483.7,282.2 484.2,282.6 484.8,282.6 485.3,282.8 485.9,282.5 486.5,282.9 487.0,283.2 487.6,283.2 488.1,283.6 488.7,284.0 489.2,284.2 489.8,284.5 490.3,284.5 490.9,284.7 491.5,284.7 492.0,284.9 492.6,285.1 493.1,285.1 493.7,285.1 494.2,285.3 494.8,285.5 495.4,285.6 495.9,285.8 496.5,286.0 497.0,286.2 497.6,286.4 498.1,286.4 498.7,286.6 499.2,287.0 499.8,287.4 500.4,287.6 500.9,287.9 501.5,288.0 502.0,288.2 502.6,288.3 503.1,287.9 503.7,288.1 504.2,287.9 504.8,288.1 505.4,288.5 505.9,288.8 506.5,289.4 507.0,289.4 507.6,289.9 508.1,289.9 508.7,290.2 509.3,290.4 509.8,290.5 510.4,290.5 510.9,290.7 511.5,291.1 512.0,291.5 512.6,291.5 513.1,291.7 513.7,291.9 514.3,292.2 514.8,292.5 515.4,292.6 515.9,292.7 516.5,292.8 517.0,293.6 517.6,293.9 518.1,294.1 518.7,294.5 519.3,294.7 519.8,294.8 520.4,294.8 520.9,295.1 521.5,295.2 522.0,295.4 522.6,295.4 523.2,295.5 523.7,295.7 524.3,296.0 524.8,296.2 525.4,296.2 525.9,296.5 526.5,296.8 527.0,296.8 527.6,296.9 528.2,297.1 528.7,297.1 529.3,297.5 529.8,297.5 530.4,297.6 530.9,297.6 531.5,298.0 532.0,298.1 532.6,298.3 533.2,298.8 533.7,299.0 534.3,299.3 534.8,299.4 535.4,299.6 535.9,299.7 536.5,300.1 537.1,300.8 537.6,300.4 538.2,300.4 538.7,300.5 539.3,300.7 539.8,300.8 540.4,301.0 540.9,301.1 541.5,301.6 542.1,301.8 542.6,301.9 543.2,302.0 543.7,302.0 544.3,302.2 544.8,302.5 545.4,302.7 545.9,302.7 546.5,302.7 547.1,302.9 547.6,303.3 548.2,303.5 548.7,303.9 549.3,303.9 549.8,304.0 550.4,304.1 550.9,304.3 551.5,304.3 552.1,304.4 552.6,304.6 553.2,304.7 553.7,304.9 554.3,305.1 554.8,305.1 555.4,305.2 556.0,305.3 556.5,305.5 557.1,305.7 557.6,306.0 558.2,306.1 558.7,306.4 559.3,306.6 559.8,306.8 560.4,306.8 561.0,307.3 561.5,307.5 562.1,308.1 562.6,308.4 563.2,308.6 563.7,308.8 564.3,308.9 564.8,309.1 565.4,309.2 566.0,309.5 566.5,310.0 567.1,310.3 567.6,310.9 568.2,310.8 568.7,310.8 569.3,311.1 569.9,311.2 570.4,311.3 571.0,311.5 571.5,311.9 572.1,311.9 572.6,312.2 573.2,312.7 573.7,312.7 574.3,312.5 574.9,312.7 575.4,312.4 576.0,312.6 576.5,312.5 577.1,312.4 577.6,312.9 578.2,313.3 578.7,313.4 579.3,313.6 579.9,313.9 580.4,314.6 581.0,314.4 581.5,314.6 582.1,315.2 582.6,315.4 583.2,315.4 583.8,315.6 584.3,315.7 584.9,315.8 585.4,315.8 586.0,316.0 586.5,316.2 587.1,316.4 587.6,316.5 588.2,316.7 588.8,317.0 589.3,317.0 589.9,316.8 590.4,316.9 591.0,317.3 591.5,317.4 592.1,317.7 592.6,317.8 593.2,318.0 593.8,318.3 594.3,318.4 594.9,318.6 595.4,318.8 596.0,319.0 596.5,319.0 597.1,319.2 597.7,319.1 598.2,319.4 598.8,319.5 599.3,319.7 599.9,319.9 600.4,319.9 601.0,320.0 601.5,320.3 602.1,320.6 602.7,321.5 603.2,321.5 603.8,321.6 604.3,321.8 604.9,321.9 605.4,321.9 606.0,322.1 606.5,322.5 607.1,322.1 607.7,322.3 608.2,322.3 608.8,322.3 609.3,322.6 609.9,322.9 610.4,323.1 611.0,323.1 611.6,323.3 612.1,323.7 612.7,323.9 613.2,323.9 613.8,324.2 614.3,324.2 614.9,324.4 615.4,324.6 616.0,324.8 616.6,325.1 617.1,325.3 617.7,325.4 618.2,325.6 618.8,325.6 619.3,325.7 619.9,326.1 620.4,325.9 621.0,326.3 621.6,326.5 622.1,326.6 622.7,326.7 623.2,326.9 623.8,327.1 624.3,327.1 624.9,327.3 625.5,327.4 626.0,327.5 626.6,327.7 627.1,328.0 627.7,328.1 628.2,328.3 628.8,328.6 629.3,328.5 629.9,328.8 630.5,329.2 631.0,329.3 631.6,329.5 632.1,329.6 632.7,329.7 633.2,329.9 633.8,329.9 634.3,330.2 634.9,330.4 635.5,330.6 636.0,330.8 636.6,330.9 637.1,331.2 637.7,331.3 638.2,331.5 638.8,331.7 639.4,332.0 639.9,333.5 640.5,333.7 641.0,333.6 641.6,334.0 642.1,334.3 642.7,334.4 643.2,334.5 643.8,334.4 644.4,334.8 644.9,334.9 645.5,335.1 646.0,335.3 646.6,335.6 647.1,335.7 647.7,335.4 648.2,335.7 648.8,336.0 649.4,336.1 649.9,336.1 650.5,336.2 651.0,336.3 651.6,336.5 652.1,336.5 652.7,336.7 653.3,337.0 653.8,337.1 654.4,336.9 654.9,336.5 655.5,336.3 656.0,336.4 656.6,336.6 657.1,336.7 657.7,336.8 658.3,337.0 658.8,337.1 659.4,336.9 659.9,337.1 660.5,337.2 661.0,337.6 661.6,337.9 662.1,338.3 662.7,338.4 663.3,338.5 663.8,338.7 664.4,338.8 664.9,338.9 665.5,339.0 666.0,339.3 666.6,339.4 667.2,339.6 667.7,339.8 668.3,340.0 668.8,340.1 669.4,340.3 669.9,340.5 670.5,340.7 671.0,340.9 671.6,341.1 672.2,341.4 672.7,341.7 673.3,342.0 673.8,342.0 674.4,342.2 674.9,342.2 675.5,342.6 676.0,342.6 676.6,342.7 677.2,342.8 677.7,342.8 678.3,343.0 678.8,343.1 679.4,342.8 679.9,342.7 680.5,342.8 681.1,343.0 681.6,343.1 682.2,343.2 682.7,343.2 683.3,343.6 683.8,343.9 684.4,344.1 684.9,344.3 685.5,344.4 686.1,344.7 686.6,343.9 687.2,343.4 687.7,343.8 688.3,343.7 688.8,343.5 689.4,343.4 689.9,343.6 690.5,343.7 691.1,343.7 691.6,343.8 692.2,343.9 692.7,343.9 693.3,344.1 693.8,343.8 694.4,343.4 694.9,344.2 695.5,344.5 696.1,344.6 696.6,344.8 697.2,344.9 697.7,345.1 698.3,345.1 698.8,345.1 699.4,345.5 700.0,345.6 700.5,345.6 701.1,346.0 701.6,345.9 702.2,346.6 702.7,346.8 703.3,347.0 703.8,347.0 704.4,347.0 705.0,347.2 705.5,347.3 706.1,347.4 706.6,347.4 707.2,347.5 707.7,347.5 708.3,347.5 708.8,347.6 709.4,347.6 710.0,347.6 710.5,346.7 711.1,346.5 711.6,346.9 712.2,347.2 712.7,347.4 713.3,347.6 713.9,347.7 714.4,347.7 715.0,347.9 715.5,348.0 716.1,348.0 716.6,348.2 717.2,348.4 717.7,348.6 718.3,349.3 718.9,349.2 719.4,349.2 720.0,349.5 720.5,349.7 721.1,349.7 721.6,350.1 722.2,350.1 722.7,350.0 723.3,350.1 723.9,350.4 724.4,350.5 725.0,350.7 725.5,350.9 726.1,351.1 726.6,351.1 727.2,351.5 727.8,351.6 728.3,351.8 728.9,351.8 729.4,352.2 730.0,352.2 730.5,352.6 731.1,352.7 731.6,353.0 732.2,353.1 732.8,353.3 733.3,353.3 733.9,353.3 734.4,353.6 735.0,354.1 735.5,354.1 736.1,354.3 736.6,354.5 737.2,354.7 737.8,355.0 738.3,355.0 738.9,355.2 739.4,355.3 740.0,355.3 740.5,355.0 741.1,355.2 741.7,355.3 742.2,355.6 742.8,355.7 743.3,355.8 743.9,355.9 744.4,356.0 745.0,356.3 745.5,356.5 746.1,356.8 746.7,357.0 747.2,357.0 747.8,357.2 748.3,357.3 748.9,357.4 749.4,357.6 750.0,357.7 750.5,357.8 751.1,358.1 751.7,358.7 752.2,358.6 752.8,359.0 753.3,359.1 753.9,359.2 754.4,359.3 755.0,359.5 755.6,359.4 756.1,359.4 756.7,359.4 757.2,359.6 757.8,359.5 758.3,359.9 758.9,359.9 759.4,359.9 760.0,360.0" fill="none" stroke="#ff7f0e" stroke-width="2" /><path d="M 40.0,40.0 40.6,41.1 41.1,41.5 41.7,41.7 42.2,42.3 42.8,42.5 43.3,42.9 43.9,43.4 44.4,43.3 45.0,43.5 45.5,43.9 46.1,43.8 46.6,44.3 47.2,44.3 47.7,45.1 48.3,45.6 48.8,46.3 49.4,46.6 49.9,47.2 50.5,47.4 51.0,47.8 51.6,48.1 52.1,48.6 52.7,49.2 53.2,50.0 53.8,50.3 54.3,51.0 54.9,51.4 55.4,51.5 56.0,51.6 56.5,52.6 57.1,52.6 57.6,52.8 58.2,53.0 58.7,53.7 59.3,54.0 59.8,54.9 60.4,55.3 60.9,55.5 61.5,55.0 62.0,55.3 62.6,55.3 63.1,55.5 63.7,56.2 64.2,56.4 64.8,56.6 65.3,57.0 65.9,57.5 66.4,58.2 67.0,58.5 67.5,58.5 68.1,58.9 68.6,59.1 69.2,59.9 69.7,60.4 70.3,60.9 70.8,61.8 71.4,61.9 71.9,62.2 72.5,62.4 73.0,62.6 73.6,63.2 74.1,63.2 74.7,64.1 75.2,64.7 75.8,65.3 76.3,65.8 76.9,66.5 77.4,66.8 78.0,66.8 78.5,67.1 79.1,67.5 79.6,68.0 80.2,68.6 80.7,69.0 81.3,69.3 81.8,69.6 82.4,69.2 82.9,68.5 83.5,69.8 84.0,71.4 84.6,72.2 85.1,73.7 85.7,73.5 86.2,73.9 86.8,74.1 87.3,74.5 87.9,75.5 88.4,75.6 89.0,75.8 89.5,76.1 90.1,76.9 90.6,77.6 91.2,77.9 91.7,78.1 92.3,78.1 92.8,77.6 93.4,77.9 93.9,78.3 94.5,78.6 95.0,78.5 95.6,79.0 96.1,79.7 96.7,79.8 97.2,80.5 97.8,80.9 98.3,81.7 98.9,82.0 99.4,82.6 100.0,83.4 100.5,84.0 101.1,84.2 101.6,84.6 102.2,85.1 102.7,85.4 103.3,85.6 103.8,85.6 104.4,86.4 104.9,86.6 105.5,86.6 106.0,87.2 106.6,87.6 107.1,88.0 107.7,88.0 108.2,89.2 108.8,89.5 109.3,89.8 109.9,90.3 110.4,90.3 111.0,90.9 111.5,91.2 112.1,91.4 112.6,91.9 113.2,92.4 113.7,93.0 114.3,93.3 114.8,93.7 115.4,93.6 115.9,93.5 116.5,93.9 117.0,93.9 117.6,94.2 118.1,94.2 118.7,93.9 119.2,94.6 119.8,94.4 120.3,94.7 120.9,95.2 121.4,95.5 122.0,95.2 122.5,95.8 123.1,96.3 123.6,96.9 124.2,96.9 124.7,96.3 125.3,97.0 125.8,97.9 126.4,97.9 126.9,98.1 127.5,98.5 128.0,98.7 128.6,99.4 129.1,99.6 129.7,99.8 130.2,99.8 130.8,100.0 131.3,100.4 131.9,101.3 132.4,100.9 133.0,101.8 133.5,102.6 134.1,103.8 134.6,103.9 135.2,104.2 135.7,104.6 136.3,105.0 136.8,105.1 137.4,105.1 137.9,105.1 138.5,105.3 139.0,105.0 139.6,105.6 140.1,105.8 140.7,105.7 141.2,106.2 141.8,104.9 142.3,105.3 142.9,106.2 143.4,106.3 144.0,106.5 144.5,106.5 145.1,107.0 145.6,107.4 146.2,108.0 146.7,108.6 147.3,108.9 147.8,109.3 148.4,109.6 148.9,110.1 149.5,111.9 150.0,113.7 150.6,113.8 151.1,113.9 151.7,113.9 152.2,114.0 152.8,114.3 153.3,115.0 153.9,115.2 154.4,115.7 155.0,116.2 155.5,116.5 156.1,116.9 156.6,117.4 157.2,117.6 157.7,117.9 158.3,118.5 158.8,118.8 159.4,119.4 159.9,119.8 160.5,119.7 161.0,120.3 161.6,120.7 162.1,120.8 162.7,120.8 163.2,121.4 163.8,121.4 164.3,121.4 164.9,121.6 165.4,122.0 166.0,122.3 166.5,122.6 167.1,122.6 167.6,123.3 168.2,123.6 168.7,123.8 169.3,124.3 169.8,124.6 170.4,124.8 170.9,125.3 171.5,125.6 172.0,125.8 172.6,126.1 173.1,126.6 173.7,127.3 174.2,127.3 174.8,127.2 175.3,127.3 175.9,127.4 176.4,127.8 177.0,128.2 177.5,128.4 178.1,128.4 178.6,129.0 179.2,129.7 179.7,129.9 180.3,129.6 180.8,130.4 181.4,130.4 181.9,131.1 182.5,131.5 183.0,131.7 183.6,131.6 184.1,131.9 184.7,132.3 185.2,132.7 185.8,133.3 186.3,133.5 186.9,134.2 187.4,134.4 188.0,135.0 188.5,134.7 189.1,134.6 189.6,134.6 190.2,135.4 190.7,135.9 191.3,135.9 191.8,136.0 192.4,136.4 192.9,136.7 193.5,136.9 194.0,137.0 194.6,137.3 195.1,137.9 195.7,138.1 196.2,139.5 196.8,139.9 197.3,140.5 197.9,141.1 198.4,141.4 199.0,141.5 199.5,141.3 200.1,141.3 200.6,141.3 201.2,141.9 201.7,142.2 202.3,142.4 202.8,142.7 203.4,143.1 203.9,143.3 204.5,143.5 205.0,143.2 205.6,144.1 206.1,143.9 206.7,144.1 207.2,144.7 207.8,145.2 208.3,145.5 208.9,145.8 209.4,145.9 210.0,146.3 210.5,146.6 211.1,146.6 211.6,146.6 212.2,147.0 212.7,147.0 213.3,147.2 213.8,147.8 214.4,147.8 214.9,148.2 215.5,148.3 216.0,148.7 216.6,149.2 217.1,149.5 217.7,149.7 218.2,150.3 218.8,150.5 219.3,150.6 219.9,150.8 220.4,150.9 221.0,150.8 221.5,151.3 222.1,151.8 222.6,151.7 223.2,152.5 223.7,153.0 224.3,153.1 224.8,153.5 225.4,153.7 225.9,155.7 226.5,155.9 227.0,156.3 227.6,156.8 228.1,156.9 228.7,157.6 229.2,157.8 229.8,157.8 230.3,158.7 230.9,158.9 231.4,159.0 232.0,159.3 232.5,159.8 233.1,159.8 233.6,160.2 234.2,160.2 234.7,160.3 235.3,160.8 235.8,161.3 236.4,161.3 236.9,161.5 237.5,161.9 238.0,162.0 238.6,162.4 239.1,162.8 239.7,163.0 240.2,163.1 240.8,163.6 241.3,163.8 241.9,164.3 242.4,164.6 243.0,164.7 243.5,164.9 244.1,165.2 244.6,165.3 245.2,165.4 245.7,165.4 246.3,165.5 246.8,165.8 247.4,166.1 247.9,166.4 248.5,166.7 249.0,166.9 249.6,167.3 250.1,167.4 250.7,167.7 251.2,168.2 251.8,168.6 252.3,169.0 252.9,169.5 253.4,169.7 254.0,169.8 254.5,170.2 255.1,170.2 255.6,170.6 256.2,171.5 256.7,172.0 257.3,172.2 257.8,172.6 258.4,172.7 258.9,172.9 259.5,173.3 260.0,173.7 260.6,174.2 261.1,174.4 261.7,174.7 262.2,174.9 262.8,175.2 263.3,175.5 263.9,175.8 264.4,176.2 265.0,176.5 265.5,176.7 266.1,176.7 266.6,176.7 267.2,176.9 267.7,177.1 268.3,177.4 268.8,177.5 269.4,177.9 269.9,177.9 270.5,177.9 271.0,178.1 271.6,178.2 272.1,178.5 272.7,178.5 273.2,178.8 273.8,179.2 274.3,179.4 274.9,179.6 275.4,180.2 276.0,180.2 276.5,180.4 277.1,180.4 277.6,180.8 278.2,180.9 278.7,181.0 279.3,181.4 279.8,181.7 280.4,182.0 280.9,182.2 281.5,182.2 282.0,182.5 282.6,183.0 283.1,183.5 283.7,184.0 284.2,184.4 284.8,185.0 285.3,185.5 285.9,185.7 286.4,185.9 287.0,186.6 287.5,186.9 288.1,187.1 288.6,187.3 289.2,187.8 289.7,188.0 290.3,188.1 290.8,188.3 291.4,188.3 291.9,188.7 292.5,188.4 293.0,188.7 293.6,188.9 294.1,187.5 294.7,187.8 295.2,188.6 295.8,188.8 296.3,188.9 296.9,189.3 297.4,189.5 298.0,189.9 298.5,190.8 299.1,191.0 299.6,191.5 300.2,191.6 300.7,192.1 301.3,192.2 301.8,192.6 302.4,192.7 302.9,193.2 303.5,193.2 304.0,193.8 304.6,194.3 305.1,194.7 305.7,195.0 306.2,195.1 306.8,194.7 307.3,195.4 307.9,195.9 308.4,196.1 309.0,196.5 309.5,196.9 310.1,197.4 310.6,197.9 311.2,198.0 311.7,198.2 312.3,198.5 312.8,198.8 313.4,199.2 313.9,199.5 314.5,199.8 315.0,200.2 315.6,200.6 316.1,201.0 316.7,201.3 317.2,201.4 317.8,201.6 318.3,201.6 318.9,201.8 319.4,202.0 320.0,202.5 320.5,202.5 321.1,202.9 321.6,203.0 322.2,203.2 322.7,203.5 323.3,203.5 323.8,203.8 324.4,203.9 324.9,203.9 325.5,203.9 326.0,204.1 326.6,204.3 327.1,204.4 327.7,204.7 328.2,204.8 328.8,204.9 329.3,204.9 329.9,204.9 330.4,205.1 331.0,205.2 331.5,205.6 332.1,205.9 332.6,205.9 333.2,206.4 333.7,206.9 334.3,207.1 334.8,207.4 335.4,207.7 335.9,208.3 336.5,208.4 337.0,208.7 337.6,209.0 338.1,209.2 338.7,210.0 339.2,209.7 339.8,210.1 340.3,210.4 340.9,210.7 341.4,211.0 342.0,211.1 342.5,211.5 343.1,211.7 343.6,212.0 344.2,212.7 344.7,212.9 345.3,213.1 345.8,212.7 346.4,213.5 346.9,212.9 347.5,213.1 348.0,213.4 348.6,213.7 349.1,214.4 349.7,214.9 350.2,215.5 350.8,215.5 351.3,215.7 351.9,216.2 352.4,216.2 353.0,216.6 353.5,216.8 354.1,217.1 354.6,217.0 355.2,217.7 355.7,218.1 356.3,218.3 356.8,218.2 357.4,218.5 357.9,218.5 358.5,219.0 359.0,219.0 359.6,219.0 360.1,219.0 360.7,219.3 361.2,219.3 361.8,219.4 362.3,220.1 362.9,220.5 363.4,220.8 364.0,221.1 364.5,221.1 365.1,221.1 365.6,221.1 366.2,221.1 366.7,221.3 367.3,221.7 367.8,222.1 368.4,222.2 368.9,222.2 369.5,222.4 370.0,222.6 370.6,222.9 371.1,223.1 371.7,223.3 372.2,223.5 372.8,223.8 373.3,224.0 373.9,224.0 374.4,224.0 375.0,224.2 375.5,224.2 376.1,224.2 376.6,224.2 377.2,224.2 377.7,224.5 378.3,224.8 378.8,224.8 379.4,224.8 379.9,224.8 380.5,225.1 381.0,225.3 381.6,225.6 382.1,225.8 382.7,225.8 383.2,225.9 383.8,226.2 384.3,226.3 384.9,226.4 385.4,226.9 386.0,227.1 386.5,227.1 387.1,227.4 387.6,227.5 388.2,227.5 388.7,227.9 389.3,228.1 389.8,228.2 390.4,228.3 390.9,228.6 391.5,228.8 392.0,229.2 392.6,229.2 393.1,229.2 393.7,229.7 394.2,229.2 394.8,229.5 395.3,230.2 395.9,230.3 396.4,230.4 397.0,230.6 397.5,230.6 398.1,230.6 398.6,230.6 399.2,230.6 399.7,230.6 400.3,230.6 400.8,230.6 401.4,231.2 401.9,231.7 402.5,232.3 403.0,232.5 403.6,232.6 404.1,232.7 404.7,232.7 405.2,232.8 405.8,232.8 406.3,232.8 406.9,233.0 407.4,233.3 408.0,233.3 408.5,233.6 409.1,233.7 409.6,234.0 410.2,234.4 410.7,234.3 411.3,234.6 411.8,235.6 412.4,235.8 412.9,236.5 413.5,236.8 414.0,237.0 414.6,237.3 415.1,237.7 415.7,237.7 416.2,237.9 416.8,238.0 417.3,238.2 417.9,238.5 418.4,239.7 419.0,240.5 419.5,241.0 420.1,241.4 420.6,241.5 421.2,241.8 421.7,242.2 422.3,242.7 422.8,242.4 423.4,242.8 423.9,243.3 424.5,243.7 425.0,243.6 425.6,243.5 426.1,243.9 426.7,243.9 427.2,244.2 427.8,244.5 428.3,244.7 428.9,244.8 429.4,245.3 430.0,245.6 430.5,246.1 431.1,246.3 431.6,246.5 432.2,246.9 432.7,247.2 433.3,247.4 433.8,247.3 434.4,247.7 434.9,247.9 435.5,248.3 436.0,248.6 436.6,248.8 437.1,249.3 437.7,249.4 438.2,249.5 438.8,249.9 439.3,250.3 439.9,250.4 440.4,250.7 441.0,250.9 441.5,251.3 442.1,251.7 442.6,251.8 443.2,251.9 443.7,252.1 444.3,252.6 444.8,252.8 445.4,253.0 445.9,253.4 446.5,253.6 447.0,254.0 447.6,254.4 448.1,254.5 448.7,254.8 449.2,255.3 449.8,256.1 450.3,256.1 450.9,256.0 451.4,255.9 452.0,256.1 452.5,256.4 453.1,256.8 453.6,257.2 454.2,257.2 454.7,257.3 455.3,257.6 455.8,257.6 456.4,258.1 456.9,258.8 457.5,258.8 458.0,259.0 458.6,259.7 459.1,260.0 459.7,260.5 460.2,260.1 460.8,260.3 461.3,260.6 461.9,261.0 462.4,261.2 463.0,261.5 463.5,261.7 464.1,261.9 464.6,262.3 465.2,262.2 465.7,261.6 466.3,261.6 466.8,262.1 467.4,262.2 467.9,262.6 468.5,263.0 469.0,263.4 469.6,263.8 470.1,264.1 470.7,264.1 471.2,264.4 471.8,264.4 472.3,264.7 472.9,265.1 473.4,265.8 474.0,266.4 474.5,266.7 475.1,267.1 475.6,267.2 476.2,267.6 476.7,267.8 477.3,268.5 477.8,268.8 478.4,269.1 478.9,269.1 479.5,269.3 480.0,269.6 480.6,269.8 481.1,269.9 481.7,269.9 482.2,270.3 482.8,270.4 483.3,270.3 483.9,270.7 484.4,270.8 485.0,271.0 485.5,271.5 486.1,271.6 486.6,272.0 487.2,272.0 487.7,272.1 488.3,272.4 488.8,272.6 489.4,272.9 489.9,273.1 490.5,273.1 491.0,273.1 491.6,273.3 492.1,273.3 492.7,273.5 493.2,273.7 493.8,274.1 494.3,274.2 494.9,274.3 495.4,274.6 496.0,274.8 496.5,275.0 497.1,275.1 497.6,275.4 498.2,275.6 498.7,275.7 499.3,275.7 499.8,276.0 500.4,276.5 500.9,276.7 501.5,276.9 502.0,277.5 502.6,277.7 503.1,277.9 503.7,278.2 504.2,277.8 504.8,278.0 505.3,278.1 505.9,278.2 506.4,278.3 507.0,278.5 507.5,278.5 508.1,278.7 508.6,279.3 509.2,279.8 509.7,279.8 510.3,279.9 510.8,280.3 511.4,280.7 511.9,280.9 512.5,281.1 513.0,278.2 513.6,276.8 514.1,277.1 514.7,278.1 515.2,278.2 515.8,278.3 516.3,278.9 516.9,278.8 517.4,279.0 518.0,279.4 518.5,279.6 519.1,279.8 519.6,279.9 520.2,280.0 520.7,280.7 521.3,281.0 521.8,281.1 522.4,281.4 522.9,281.5 523.5,281.5 524.0,281.9 524.6,282.3 525.1,282.9 525.7,283.0 526.2,283.3 526.8,283.8 527.3,284.1 527.9,284.5 528.4,284.9 529.0,285.8 529.5,287.0 530.1,287.5 530.6,288.0 531.2,288.2 531.7,288.6 532.3,288.9 532.8,289.0 533.4,289.4 533.9,289.6 534.5,289.8 535.0,289.9 535.6,290.1 536.1,290.5 536.7,291.1 537.2,290.8 537.8,291.1 538.3,291.1 538.9,291.1 539.4,291.1 540.0,291.3 540.5,291.6 541.1,291.7 541.6,292.0 542.2,292.3 542.7,292.4 543.3,292.6 543.8,292.9 544.4,293.2 544.9,293.5 545.5,293.8 546.0,293.9 546.6,294.2 547.1,294.5 547.7,294.5 548.2,294.8 548.8,294.8 549.3,295.0 549.9,295.4 550.4,295.6 551.0,295.8 551.5,295.9 552.1,296.0 552.6,296.3 553.2,296.6 553.7,296.7 554.3,296.7 554.8,297.1 555.4,297.4 555.9,297.7 556.5,298.0 557.0,298.5 557.6,298.8 558.1,298.8 558.7,299.3 559.2,299.5 559.8,299.7 560.3,300.3 560.9,300.2 561.4,300.1 562.0,300.3 562.5,300.6 563.1,300.4 563.6,300.7 564.2,300.8 564.7,301.1 565.3,301.1 565.8,301.2 566.4,301.5 566.9,301.5 567.5,301.7 568.0,302.1 568.6,302.1 569.1,302.5 569.7,302.8 570.2,303.0 570.8,303.2 571.3,303.3 571.9,303.5 572.4,303.8 573.0,304.1 573.5,304.3 574.1,304.3 574.6,304.6 575.2,304.9 575.7,305.4 576.3,305.8 576.8,306.1 577.4,306.7 577.9,306.9 578.5,307.0 579.0,307.0 579.6,307.2 580.1,307.4 580.7,307.6 581.2,307.8 581.8,308.1 582.3,308.1 582.9,308.1 583.4,308.3 584.0,308.4 584.5,308.6 585.1,308.8 585.6,309.0 586.2,308.3 586.7,308.6 587.3,308.8 587.8,309.2 588.4,309.6 588.9,310.1 589.5,310.4 590.0,310.9 590.6,311.9 591.1,312.1 591.7,312.3 592.2,312.6 592.8,312.8 593.3,313.0 593.9,313.1 594.4,313.1 595.0,313.3 595.5,313.3 596.1,313.6 596.6,313.7 597.2,314.0 597.7,314.1 598.3,314.1 598.8,314.4 599.4,314.6 599.9,314.8 600.5,314.9 601.0,315.1 601.6,315.4 602.1,315.4 602.7,315.6 603.2,315.8 603.8,316.2 604.3,316.2 604.9,316.6 605.4,316.7 606.0,316.8 606.5,317.0 607.1,317.2 607.6,317.5 608.2,317.8 608.7,318.0 609.3,318.3 609.8,318.2 610.4,318.5 610.9,319.0 611.5,319.0 612.0,319.1 612.6,319.1 613.1,319.2 613.7,319.4 614.2,319.8 614.8,320.1 615.3,320.4 615.9,321.3 616.4,321.5 617.0,321.4 617.5,321.7 618.1,321.7 618.6,321.7 619.2,321.9 619.7,321.6 620.3,321.3 620.8,321.7 621.4,321.7 621.9,322.0 622.5,321.6 623.0,321.8 623.6,321.8 624.1,321.9 624.7,322.2 625.2,322.1 625.8,322.4 626.3,322.8 626.9,322.9 627.4,323.1 628.0,323.2 628.5,323.5 629.1,323.4 629.6,323.9 630.2,324.0 630.7,324.1 631.3,324.2 631.8,324.1 632.4,324.1 632.9,324.4 633.5,324.7 634.0,324.7 634.6,324.7 635.1,324.6 635.7,324.7 636.2,325.0 636.8,325.0 637.3,325.0 637.9,325.1 638.4,325.1 639.0,325.3 639.5,325.2 640.1,325.4 640.6,325.7 641.2,326.2 641.7,326.2 642.3,326.5 642.8,326.6 643.4,326.7 643.9,326.8 644.5,327.1 645.0,327.2 645.6,327.3 646.1,327.3 646.7,327.8 647.2,328.1 647.8,328.2 648.3,328.3 648.9,328.4 649.4,328.6 650.0,328.4 650.5,328.7 651.1,328.9 651.6,329.4 652.2,329.5 652.7,329.8 653.3,330.0 653.8,330.0 654.4,330.3 654.9,330.5 655.5,330.7 656.0,331.1 656.6,331.2 657.1,331.3 657.7,331.5 658.2,331.7 658.8,331.9 659.3,332.0 659.9,332.2 660.4,332.5 661.0,332.7 661.5,332.7 662.1,332.8 662.6,333.1 663.2,333.1 663.7,333.5 664.3,333.9 664.8,333.9 665.4,334.2 665.9,334.2 666.5,334.8 667.0,334.9 667.6,335.3 668.1,335.5 668.7,335.5 669.2,335.6 669.8,335.1 670.3,334.9 670.9,335.3 671.4,335.6 672.0,335.7 672.5,335.8 673.1,336.0 673.6,336.4 674.2,336.3 674.7,336.4 675.3,336.4 675.8,336.6 676.4,336.7 676.9,337.0 677.5,336.4 678.0,336.4 678.6,336.9 679.1,337.1 679.7,337.0 680.2,337.4 680.8,337.3 681.3,337.6 681.9,337.7 682.4,337.7 683.0,338.0 683.5,338.3 684.1,338.7 684.6,338.7 685.2,338.8 685.7,339.1 686.3,339.2 686.8,339.3 687.4,339.3 687.9,339.4 688.5,340.1 689.0,339.8 689.6,340.1 690.1,340.2 690.7,340.3 691.2,340.5 691.8,340.6 692.3,340.7 692.9,340.9 693.4,341.4 694.0,341.8 694.5,342.3 695.1,342.3 695.6,342.4 696.2,342.5 696.7,342.9 697.3,343.1 697.8,343.2 698.4,343.4 698.9,343.5 699.5,343.6 700.0,343.8 700.6,343.9 701.1,344.2 701.7,344.4 702.2,344.5 702.8,344.5 703.3,344.9 703.9,345.1 704.4,345.2 705.0,345.5 705.5,345.6 706.1,345.7 706.6,345.8 707.2,345.9 707.7,346.0 708.3,346.1 708.8,346.2 709.4,346.3 709.9,346.5 710.5,346.5 711.0,346.8 711.6,346.8 712.1,347.2 712.7,347.3 713.2,347.3 713.8,347.4 714.3,347.5 714.9,347.5 715.4,347.5 716.0,347.6 716.5,347.8 717.1,347.9 717.6,347.9 718.2,347.9 718.7,348.0 719.3,348.1 719.8,348.1 720.4,348.6 720.9,348.7 721.5,348.7 722.0,348.7 722.6,349.0 723.1,349.2 723.7,349.6 724.2,349.7 724.8,349.8 725.3,350.0 725.9,350.0 726.4,350.1 727.0,350.0 727.5,350.4 728.1,350.5 728.6,350.8 729.2,350.9 729.7,351.1 730.3,351.1 730.8,351.3 731.4,351.5 731.9,351.6 732.5,351.9 733.0,352.0 733.6,352.1 734.1,352.5 734.7,352.7 735.2,352.8 735.8,353.1 736.3,353.1 736.9,353.5 737.4,353.7 738.0,353.9 738.5,354.0 739.1,354.2 739.6,354.3 740.2,354.3 740.7,354.6 741.3,354.4 741.8,354.5 742.4,355.4 742.9,355.5 743.5,355.7 744.0,355.8 744.6,356.1 745.1,356.2 745.7,356.4 746.2,356.6 746.8,356.9 747.3,356.9 747.9,356.9 748.4,357.2 749.0,357.4 749.5,357.6 750.1,357.7 750.6,357.0 751.2,357.0 751.7,357.6 752.3,357.6 752.8,357.9 753.4,358.0 753.9,358.1 754.5,358.5 755.0,358.5 755.6,358.6 756.1,358.6 756.7,358.9 757.2,359.1 757.8,359.2 758.3,359.4 758.9,359.6 759.4,359.9 760.0,360.0" fill="none" stroke="#2ca02c" stroke-width="2" /><path d="M 40.0,40.0 40.6,41.0 41.1,41.5 41.7,41.8 42.2,42.5 42.8,42.4 43.3,43.0 43.9,42.9 44.4,43.5 45.0,44.0 45.5,44.6 46.1,45.2 46.6,45.7 47.2,45.7 47.7,45.9 48.3,43.2 48.8,43.6 49.4,43.8 49.9,43.6 50.5,44.4 51.0,43.8 51.6,44.2 52.1,44.5 52.7,44.6 53.2,44.8 53.8,46.1 54.3,46.0 54.9,47.5 55.4,48.3 56.0,49.9 56.5,50.1 57.1,50.5 57.6,50.9 58.2,51.5 58.7,52.4 59.3,52.9 59.8,53.5 60.4,53.9 60.9,54.4 61.5,55.4 62.0,55.7 62.6,56.1 63.1,55.8 63.7,56.0 64.2,56.1 64.8,57.1 65.3,57.3 65.9,58.0 66.4,58.3 67.0,58.7 67.5,58.6 68.1,59.1 68.6,59.5 69.2,60.4 69.7,60.8 70.3,61.4 70.8,61.2 71.4,61.6 71.9,61.9 72.5,62.2 73.0,62.4 73.6,63.3 74.1,63.6 74.7,64.3 75.2,64.5 75.8,64.9 76.3,65.2 76.9,65.3 77.4,67.4 78.0,67.6 78.5,67.8 79.1,68.2 79.6,68.8 80.2,68.8 80.7,69.3 81.3,69.5 81.8,70.0 82.4,70.6 82.9,70.8 83.5,71.0 84.0,71.2 84.6,72.7 85.1,72.5 85.7,72.2 86.2,72.3 86.8,72.7 87.3,73.0 87.9,73.5 88.4,73.9 89.0,74.3 89.5,74.6 90.1,74.9 90.6,75.2 91.2,75.5 91.7,76.0 92.3,76.2 92.8,76.8 93.4,77.2 93.9,77.5 94.5,78.0 95.0,78.1 95.6,78.4 96.1,78.6 96.7,78.8 97.2,79.5 97.8,80.3 98.3,80.9 98.9,81.2 99.4,81.8 100.0,82.1 100.5,82.2 101.1,82.6 101.6,82.8 102.2,83.3 102.7,83.7 103.3,84.3 103.8,84.5 104.4,84.9 104.9,85.1 105.5,85.5 106.0,85.9 106.6,87.0 107.1,87.4 107.7,87.4 108.2,87.8 108.8,88.1 109.3,88.7 109.9,88.3 110.4,88.5 111.0,88.7 111.5,89.3 112.1,89.7 112.6,90.0 113.2,90.3 113.7,90.8 114.3,91.0 114.8,91.3 115.4,92.1 115.9,92.8 116.5,92.6 117.0,93.5 117.6,93.9 118.1,94.2 118.7,94.1 119.2,94.7 119.8,95.3 120.3,95.6 120.9,96.0 121.4,96.3 122.0,96.6 122.5,97.0 123.1,96.9 123.6,97.3 124.2,97.8 124.7,98.1 125.3,98.3 125.8,98.8 126.4,99.0 126.9,99.5 127.5,99.6 128.0,100.1 128.6,100.2 129.1,101.2 129.7,101.7 130.2,101.8 130.8,102.5 131.3,102.8 131.9,103.2 132.4,104.0 133.0,104.1 133.5,104.8 134.1,105.0 134.6,105.1 135.2,105.4 135.7,106.0 136.3,106.3 136.8,106.3 137.4,106.6 137.9,106.8 138.5,107.2 139.0,107.3 139.6,107.2 140.1,107.5 140.7,108.2 141.2,109.0 141.8,109.1 142.3,109.5 142.9,109.2 143.4,110.3 144.0,110.3 144.5,110.7 145.1,111.3 145.6,111.4 146.2,111.4 146.7,111.6 147.3,112.3 147.8,112.3 148.4,112.9 148.9,113.0 149.5,113.4 150.0,113.4 150.6,113.7 151.1,114.3 151.7,114.6 152.2,114.9 152.8,114.9 153.3,115.2 153.9,115.2 154.4,115.3 155.0,115.5 155.5,115.5 156.1,115.5 156.6,115.8 157.2,115.9 157.7,116.3 158.3,116.5 158.8,116.9 159.4,116.9 159.9,117.4 160.5,117.6 161.0,117.7 161.6,117.9 162.1,118.1 162.7,119.2 163.2,119.9 163.8,115.9 164.3,119.0 164.9,119.3 165.4,119.1 166.0,118.6 166.5,118.7 167.1,118.9 167.6,119.6 168.2,119.8 168.7,120.1 169.3,120.5 169.8,120.0 170.4,120.0 170.9,120.5 171.5,121.5 172.0,121.4 172.6,121.2 173.1,122.1 173.7,122.5 174.2,122.9 174.8,123.2 175.3,123.5 175.9,123.7 176.4,124.0 177.0,124.1 177.5,125.5 178.1,125.6 178.6,127.2 179.2,127.6 179.7,128.0 180.3,128.4 180.8,128.1 181.4,128.8 181.9,129.3 182.5,129.4 183.0,129.4 183.6,129.3 184.1,129.9 184.7,130.3 185.2,130.4 185.8,130.6 186.3,130.7 186.9,130.8 187.4,131.0 188.0,131.0 188.5,131.6 189.1,132.1 189.6,132.0 190.2,132.0 190.7,132.4 191.3,132.5 191.8,132.6 192.4,131.9 192.9,132.5 193.5,132.7 194.0,133.0 194.6,132.4 195.1,133.4 195.7,133.7 196.2,133.9 196.8,134.0 197.3,134.4 197.9,134.5 198.4,134.3 199.0,134.4 199.5,134.8 200.1,134.9 200.6,135.2 201.2,135.4 201.7,135.6 202.3,136.0 202.8,136.5 203.4,136.7 203.9,136.6 204.5,137.0 205.0,137.0 205.6,137.4 206.1,138.1 206.7,138.2 207.2,138.7 207.8,139.3 208.3,139.4 208.9,139.0 209.4,140.2 210.0,140.4 210.5,140.6 211.1,141.2 211.6,141.7 212.2,142.0 212.7,142.2 213.3,142.4 213.8,142.9 214.4,143.0 214.9,143.5 215.5,143.6 216.0,144.2 216.6,144.1 217.1,144.7 217.7,144.7 218.2,145.0 218.8,144.9 219.3,145.3 219.9,145.1 220.4,144.4 221.0,144.5 221.5,143.7 222.1,143.6 222.6,140.6 223.2,140.5 223.7,140.2 224.3,141.1 224.8,142.4 225.4,142.8 225.9,142.7 226.5,143.2 227.0,143.9 227.6,144.3 228.1,143.5 228.7,145.1 229.2,145.2 229.8,145.5 230.3,145.8 230.9,145.9 231.4,146.8 232.0,147.3 232.5,148.2 233.1,148.9 233.6,149.0 234.2,149.1 234.7,149.1 235.3,149.2 235.8,148.9 236.4,149.8 236.9,149.8 237.5,150.2 238.0,150.7 238.6,151.2 239.1,151.3 239.7,151.4 240.2,152.1 240.8,152.5 241.3,152.6 241.9,153.5 242.4,154.3 243.0,154.6 243.5,154.9 244.1,155.6 244.6,155.8 245.2,155.9 245.7,156.2 246.3,156.4 246.8,157.0 247.4,157.0 247.9,157.5 248.5,157.5 249.0,158.1 249.6,158.1 250.1,158.5 250.7,158.6 251.2,159.3 251.8,159.7 252.3,161.1 252.9,161.5 253.4,161.0 254.0,161.4 254.5,161.5 255.1,161.9 255.6,161.8 256.2,162.1 256.7,162.2 257.3,162.6 257.8,163.2 258.4,163.6 258.9,164.1 259.5,164.4 260.0,164.7 260.6,165.0 261.1,165.5 261.7,166.3 262.2,166.6 262.8,166.8 263.3,166.9 263.9,167.0 264.4,167.0 265.0,167.6 265.5,168.1 266.1,168.4 266.6,168.6 267.2,168.7 267.7,168.9 268.3,169.3 268.8,169.8 269.4,170.0 269.9,170.6 270.5,170.9 271.0,171.7 271.6,172.1 272.1,172.2 272.7,172.8 273.2,172.9 273.8,173.2 274.3,173.6 274.9,174.0 275.4,174.5 276.0,174.7 276.5,174.9 277.1,174.7 277.6,175.3 278.2,175.3 278.7,175.7 279.3,176.0 279.8,176.2 280.4,176.8 280.9,177.0 281.5,177.1 282.0,177.6 282.6,177.7 283.1,177.7 283.7,178.0 284.2,178.0 284.8,178.2 285.3,178.8 285.9,179.4 286.4,179.7 287.0,180.0 287.5,180.4 288.1,180.4 288.6,180.8 289.2,181.3 289.7,181.8 290.3,183.0 290.8,184.3 291.4,184.2 291.9,184.2 292.5,184.0 293.0,183.4 293.6,183.6 294.1,183.7 294.7,182.9 295.2,183.7 295.8,184.3 296.3,185.2 296.9,185.4 297.4,185.9 298.0,186.0 298.5,186.6 299.1,186.8 299.6,187.1 300.2,186.5 300.7,187.0 301.3,187.2 301.8,188.0 302.4,187.9 302.9,188.2 303.5,188.9 304.0,189.4 304.6,189.7 305.1,190.4 305.7,190.3 306.2,190.3 306.8,190.1 307.3,191.2 307.9,191.6 308.4,191.8 309.0,192.2 309.5,192.3 310.1,192.4 310.6,192.8 311.2,193.1 311.7,193.2 312.3,193.8 312.8,194.2 313.4,194.7 313.9,194.9 314.5,195.5 315.0,195.7 315.6,195.9 316.1,196.2 316.7,196.5 317.2,196.6 317.8,197.0 318.3,197.3 318.9,197.3 319.4,197.8 320.0,198.2 320.5,198.6 321.1,198.9 321.6,199.1 322.2,199.4 322.7,199.4 323.3,199.4 323.8,199.6 324.4,199.8 324.9,200.5 325.5,200.8 326.0,201.4 326.6,201.4 327.1,201.9 327.7,202.1 328.2,202.4 328.8,202.3 329.3,202.8 329.9,203.2 330.4,203.4 331.0,203.5 331.5,204.0 332.1,204.4 332.6,204.5 333.2,204.8 333.7,205.4 334.3,205.6 334.8,206.0 335.4,206.1 335.9,206.3 336.5,206.5 337.0,206.9 337.6,207.4 338.1,207.5 338.7,208.0 339.2,207.2 339.8,207.3 340.3,207.3 340.9,208.3 341.4,209.0 342.0,209.2 342.5,209.6 343.1,209.7 343.6,210.0 344.2,210.2 344.7,210.5 345.3,210.9 345.8,211.0 346.4,211.8 346.9,211.7 347.5,211.6 348.0,212.0 348.6,212.2 349.1,212.6 349.7,212.6 350.2,211.9 350.8,212.3 351.3,212.4 351.9,212.9 352.4,213.0 353.0,213.2 353.5,213.5 354.1,213.1 354.6,216.4 355.2,216.4 355.7,217.0 356.3,216.9 356.8,217.1 357.4,217.5 357.9,217.5 358.5,218.0 359.0,218.8 359.6,219.5 360.1,219.7 360.7,219.2 361.2,219.5 361.8,220.4 362.3,220.1 362.9,220.5 363.4,220.8 364.0,221.1 364.5,221.5 365.1,222.0 365.6,222.5 366.2,222.8 366.7,222.9 367.3,223.2 367.8,223.6 368.4,223.9 368.9,223.9 369.5,224.1 370.0,224.5 370.6,225.1 371.1,225.3 371.7,225.4 372.2,226.1 372.8,226.2 373.3,226.9 373.9,227.4 374.4,227.8 375.0,227.8 375.5,227.9 376.1,228.1 376.6,228.4 377.2,228.9 377.7,229.1 378.3,229.3 378.8,229.5 379.4,229.8 379.9,230.2 380.5,230.4 381.0,230.3 381.6,230.5 382.1,230.9 382.7,231.1 383.2,231.2 383.8,231.5 384.3,231.6 384.9,231.8 385.4,232.1 386.0,232.5 386.5,232.8 387.1,233.2 387.6,233.7 388.2,234.0 388.7,234.8 389.3,234.9 389.8,235.1 390.4,235.3 390.9,235.2 391.5,235.2 392.0,235.9 392.6,236.4 393.1,236.4 393.7,236.7 394.2,237.2 394.8,237.7 395.3,237.4 395.9,237.6 396.4,238.1 397.0,238.1 397.5,238.7 398.1,239.2 398.6,239.3 399.2,239.4 399.7,239.2 400.3,239.6 400.8,239.6 401.4,240.1 401.9,239.9 402.5,239.9 403.0,238.6 403.6,238.5 404.1,238.4 404.7,239.1 405.2,239.7 405.8,240.0 406.3,240.3 406.9,240.3 407.4,240.6 408.0,240.6 408.5,241.1 409.1,241.9 409.6,242.0 410.2,242.8 410.7,243.9 411.3,244.6 411.8,244.8 412.4,244.9 412.9,244.7 413.5,245.0 414.0,245.1 414.6,245.5 415.1,245.9 415.7,246.2 416.2,246.1 416.8,246.4 417.3,247.1 417.9,247.1 418.4,246.2 419.0,246.5 419.5,246.5 420.1,246.4 420.6,246.8 421.2,247.0 421.7,247.4 422.3,247.6 422.8,248.0 423.4,248.0 423.9,248.2 424.5,248.5 425.0,248.7 425.6,248.5 426.1,248.7 426.7,248.8 427.2,248.9 427.8,249.3 428.3,249.5 428.9,249.9 429.4,250.1 430.0,250.1 430.5,250.5 431.1,250.7 431.6,250.9 432.2,250.9 432.7,251.1 433.3,251.3 433.8,251.4 434.4,251.7 434.9,252.0 435.5,252.3 436.0,251.9 436.6,252.5 437.1,253.0 437.7,253.1 438.2,253.1 438.8,253.1 439.3,253.2 439.9,253.4 440.4,253.7 441.0,254.0 441.5,254.0 442.1,253.9 442.6,253.9 443.2,254.4 443.7,254.9 444.3,254.9 444.8,255.1 445.4,255.3 445.9,255.6 446.5,256.0 447.0,256.2 447.6,256.4 448.1,256.6 448.7,257.0 449.2,257.6 449.8,257.5 450.3,258.5 450.9,258.7 451.4,259.1 452.0,260.0 452.5,259.9 453.1,259.9 453.6,259.8 454.2,260.1 454.7,260.4 455.3,260.6 455.8,260.7 456.4,261.1 456.9,261.9 457.5,262.4 458.0,261.8 458.6,262.3 459.1,262.1 459.7,262.6 460.2,262.8 460.8,263.1 461.3,263.3 461.9,263.5 462.4,263.9 463.0,264.2 463.5,264.0 464.1,264.6 464.6,265.1 465.2,265.9 465.7,265.9 466.3,266.0 466.8,266.6 467.4,267.0 467.9,267.0 468.5,267.2 469.0,267.5 469.6,267.8 470.1,267.9 470.7,268.2 471.2,268.4 471.8,268.5 472.3,268.6 472.9,268.6 473.4,269.3 474.0,269.6 474.5,270.0 475.1,270.0 475.6,270.3 476.2,270.3 476.7,270.6 477.3,270.9 477.8,270.9 478.4,271.2 478.9,271.7 479.5,271.9 480.0,271.9 480.6,272.1 481.1,272.3 481.7,272.4 482.2,272.8 482.8,273.0 483.3,273.2 483.9,273.4 484.4,273.8 485.0,274.0 485.5,274.2 486.1,274.2 486.6,274.3 487.2,274.3 487.7,274.5 488.3,274.8 488.8,274.9 489.4,275.5 489.9,275.8 490.5,275.9 491.0,275.9 491.6,276.5 492.1,276.6 492.7,277.2 493.2,277.3 493.8,277.6 494.3,277.7 494.9,278.0 495.4,278.5 496.0,278.8 496.5,279.0 497.1,279.0 497.6,279.1 498.2,279.3 498.7,279.4 499.3,279.7 499.8,279.6 500.4,279.7 500.9,280.2 501.5,280.4 502.0,280.6 502.6,280.6 503.1,281.0 503.7,281.1 504.2,281.2 504.8,280.9 505.3,280.1 505.9,280.2 506.4,280.4 507.0,280.8 507.5,281.4 508.1,281.5 508.6,281.9 509.2,281.9 509.7,281.8 510.3,282.2 510.8,282.4 511.4,282.9 511.9,283.0 512.5,283.8 513.0,284.0 513.6,284.1 514.1,284.3 514.7,284.9 515.2,285.1 515.8,285.8 516.3,285.8 516.9,286.0 517.4,286.8 518.0,286.9 518.5,287.4 519.1,287.4 519.6,287.5 520.2,287.6 520.7,288.0 521.3,288.1 521.8,288.4 522.4,288.7 522.9,289.2 523.5,289.4 524.0,289.5 524.6,289.6 525.1,289.8 525.7,289.9 526.2,290.0 526.8,290.2 527.3,290.3 527.9,290.5 528.4,290.9 529.0,290.6 529.5,290.7 530.1,290.8 530.6,291.0 531.2,291.0 531.7,291.1 532.3,291.4 532.8,291.5 533.4,292.2 533.9,292.2 534.5,292.4 535.0,292.6 535.6,292.8 536.1,292.9 536.7,293.2 537.2,293.3 537.8,292.5 538.3,292.5 538.9,292.4 539.4,292.6 540.0,292.7 540.5,292.9 541.1,293.0 541.6,293.1 542.2,293.4 542.7,293.6 543.3,293.8 543.8,294.0 544.4,294.0 544.9,294.3 545.5,294.5 546.0,294.5 546.6,294.0 547.1,294.3 547.7,293.9 548.2,294.2 548.8,294.4 549.3,294.6 549.9,294.6 550.4,295.2 551.0,295.9 551.5,296.2 552.1,296.5 552.6,296.9 553.2,297.1 553.7,297.1 554.3,297.5 554.8,297.9 555.4,298.1 555.9,298.2 556.5,298.2 557.0,298.3 557.6,298.9 558.1,298.9 558.7,298.9 559.2,299.1 559.8,299.3 560.3,299.1 560.9,298.0 561.4,297.9 562.0,298.1 562.5,297.7 563.1,298.3 563.6,298.4 564.2,298.6 564.7,298.7 565.3,298.8 565.8,298.8 566.4,298.6 566.9,299.5 567.5,299.5 568.0,300.0 568.6,300.1 569.1,300.4 569.7,300.5 570.2,301.2 570.8,301.8 571.3,301.9 571.9,301.9 572.4,302.0 573.0,302.3 573.5,302.6 574.1,302.8 574.6,303.0 575.2,303.4 575.7,303.4 576.3,303.6 576.8,304.2 577.4,304.4 577.9,304.5 578.5,304.8 579.0,304.7 579.6,304.9 580.1,305.1 580.7,305.6 581.2,305.7 581.8,305.7 582.3,306.0 582.9,305.7 583.4,306.0 584.0,306.2 584.5,306.4 585.1,306.5 585.6,306.5 586.2,306.6 586.7,306.9 587.3,307.1 587.8,307.2 588.4,307.2 588.9,307.5 589.5,307.5 590.0,307.6 590.6,307.8 591.1,308.0 591.7,308.2 592.2,308.2 592.8,308.4 593.3,308.6 593.9,308.8 594.4,309.0 595.0,309.1 595.5,309.1 596.1,309.2 596.6,309.3 597.2,309.6 597.7,309.8 598.3,309.9 598.8,310.1 599.4,310.2 599.9,310.4 600.5,310.6 601.0,310.8 601.6,310.9 602.1,311.2 602.7,311.5 603.2,312.1 603.8,312.0 604.3,312.6 604.9,312.4 605.4,312.7 606.0,312.6 606.5,312.8 607.1,313.1 607.6,313.4 608.2,313.8 608.7,314.7 609.3,314.7 609.8,314.5 610.4,314.7 610.9,314.6 611.5,314.7 612.0,315.3 612.6,315.3 613.1,315.3 613.7,315.3 614.2,316.0 614.8,316.0 615.3,316.6 615.9,316.7 616.4,316.8 617.0,317.1 617.5,317.1 618.1,317.2 618.6,317.4 619.2,317.4 619.7,317.6 620.3,317.7 620.8,317.7 621.4,317.9 621.9,318.2 622.5,318.3 623.0,318.4 623.6,318.4 624.1,318.6 624.7,318.6 625.2,318.3 625.8,318.2 626.3,318.7 626.9,318.8 627.4,319.2 628.0,319.2 628.5,319.2 629.1,319.4 629.6,319.6 630.2,319.6 630.7,320.1 631.3,320.3 631.8,320.5 632.4,320.3 632.9,320.4 633.5,320.7 634.0,321.0 634.6,321.1 635.1,321.4 635.7,321.5 636.2,321.6 636.8,321.8 637.3,322.1 637.9,322.4 638.4,322.5 639.0,322.7 639.5,323.1 640.1,323.4 640.6,323.5 641.2,323.6 641.7,324.1 642.3,324.2 642.8,324.3 643.4,324.4 643.9,324.6 644.5,324.6 645.0,324.9 645.6,325.1 646.1,325.3 646.7,325.4 647.2,325.4 647.8,325.7 648.3,325.8 648.9,326.0 649.4,326.2 650.0,326.5 650.5,326.7 651.1,326.9 651.6,327.1 652.2,327.2 652.7,327.6 653.3,327.5 653.8,327.7 654.4,328.0 654.9,328.0 655.5,328.3 656.0,329.0 656.6,328.9 657.1,329.3 657.7,329.6 658.2,329.7 658.8,330.4 659.3,330.4 659.9,330.4 660.4,330.6 661.0,331.0 661.5,330.9 662.1,331.0 662.6,331.1 663.2,330.8 663.7,330.8 664.3,331.0 664.8,330.8 665.4,330.9 665.9,330.9 666.5,331.0 667.0,331.3 667.6,331.8 668.1,332.0 668.7,332.1 669.2,332.4 669.8,332.6 670.3,332.7 670.9,333.1 671.4,333.6 672.0,333.8 672.5,333.7 673.1,333.8 673.6,334.1 674.2,334.1 674.7,334.5 675.3,334.4 675.8,334.4 676.4,334.6 676.9,334.9 677.5,335.1 678.0,335.2 678.6,334.6 679.1,334.6 679.7,334.8 680.2,334.9 680.8,335.3 681.3,335.4 681.9,335.5 682.4,335.8 683.0,335.7 683.5,335.9 684.1,335.8 684.6,335.8 685.2,335.9 685.7,336.0 686.3,336.2 686.8,336.8 687.4,337.2 687.9,337.3 688.5,337.4 689.0,337.0 689.6,337.3 690.1,337.4 690.7,337.7 691.2,337.9 691.8,337.9 692.3,338.5 692.9,338.7 693.4,338.8 694.0,339.1 694.5,339.5 695.1,339.6 695.6,339.5 696.2,339.6 696.7,339.6 697.3,339.9 697.8,340.2 698.4,340.6 698.9,341.0 699.5,340.9 700.0,341.2 700.6,341.4 701.1,341.6 701.7,341.8 702.2,342.0 702.8,342.2 703.3,342.4 703.9,342.6 704.4,342.9 705.0,343.1 705.5,343.3 706.1,343.3 706.6,343.3 707.2,343.3 707.7,343.7 708.3,343.9 708.8,343.9 709.4,344.0 709.9,344.3 710.5,344.2 711.0,344.4 711.6,344.7 712.1,344.7 712.7,345.1 713.2,345.8 713.8,346.2 714.3,346.3 714.9,346.5 715.4,346.6 716.0,346.8 716.5,346.8 717.1,347.2 717.6,347.2 718.2,347.4 718.7,347.3 719.3,347.5 719.8,347.9 720.4,348.0 720.9,348.0 721.5,348.2 722.0,348.7 722.6,348.9 723.1,348.9 723.7,349.2 724.2,349.5 724.8,349.8 725.3,350.0 725.9,350.2 726.4,350.5 727.0,350.5 727.5,350.8 728.1,351.1 728.6,350.8 729.2,350.9 729.7,351.1 730.3,351.4 730.8,351.4 731.4,351.5 731.9,351.7 732.5,351.7 733.0,351.6 733.6,351.8 734.1,352.0 734.7,352.0 735.2,352.1 735.8,352.1 736.3,352.3 736.9,352.3 737.4,352.3 738.0,352.5 738.5,352.7 739.1,353.1 739.6,353.6 740.2,353.7 740.7,353.8 741.3,354.0 741.8,354.2 742.4,354.4 742.9,354.3 743.5,354.4 744.0,354.6 744.6,355.0 745.1,355.3 745.7,355.4 746.2,355.3 746.8,355.4 747.3,355.6 747.9,355.9 748.4,355.6 749.0,355.6 749.5,355.7 750.1,356.2 750.6,356.4 751.2,356.8 751.7,356.8 752.3,357.0 752.8,357.2 753.4,357.2 753.9,357.6 754.5,357.6 755.0,357.8 755.6,358.2 756.1,358.8 756.7,358.8 757.2,359.1 757.8,359.3 758.3,359.2 758.9,359.3 759.4,359.7 760.0,360.0" fill="none" stroke="#d62728" stroke-width="2" /></svg>
