<svg xmlns="http://www.w3.org/2000/svg" width="860" height="420" viewBox="0 0 860 420">
<rect x="50" y="50" width="760" height="320" fill="white" stroke="#ddd"/>
<text x="430.0" y="42" text-anchor="middle" font-family="sans-serif" font-size="14" fill="#333">Learning Curves — AttentionTCN_improvement (AttentionTCN)</text>
<rect x="50" y="60" width="370.0" height="300" fill="white" stroke="#eee"/><path d="M 95.0,350.0 130.0,152.1 165.0,152.1 200.0,152.1 235.0,152.1 270.0,152.1 305.0,152.1 340.0,152.1 375.0,152.1 410.0,152.1" fill="none" stroke="#4e79a7" stroke-width="2.0" />
<path d="M 95.0,70.0 130.0,70.0 165.0,70.0 200.0,70.0 235.0,70.0 270.0,70.0 305.0,70.0 340.0,70.0 375.0,70.0 410.0,70.0" fill="none" stroke="#e15759" stroke-width="2.0" />
<rect x="60" y="70" width="12" height="12" fill="#4e79a7"/>
<text x="78" y="81" font-family="sans-serif" font-size="12" fill="#333">Train Acc</text>
<rect x="60" y="88" width="12" height="12" fill="#e15759"/>
<text x="78" y="99" font-family="sans-serif" font-size="12" fill="#333">Val Acc</text>
<rect x="430" y="60" width="380" height="300" fill="white" stroke="#eee"/><path d="M 476.0,70.0 512.0,329.1 548.0,331.3 584.0,332.4 620.0,331.4 656.0,335.8 692.0,337.2 728.0,337.6 764.0,338.5 800.0,339.0" fill="none" stroke="#59a14f" stroke-width="2.0" />
<path d="M 476.0,340.1 512.0,337.3 548.0,344.7 584.0,324.8 620.0,347.9 656.0,347.2 692.0,348.0 728.0,349.3 764.0,350.0 800.0,350.0" fill="none" stroke="#f28e2c" stroke-width="2.0" />
<rect x="440" y="70" width="12" height="12" fill="#59a14f"/>
<text x="458" y="81" font-family="sans-serif" font-size="12" fill="#333">Train Loss</text>
<rect x="440" y="88" width="12" height="12" fill="#f28e2c"/>
<text x="458" y="99" font-family="sans-serif" font-size="12" fill="#333">Val Loss</text>
</svg>
